<svg width="25" height="24" viewBox="0 0 25 24" fill="none" xmlns="http://www.w3.org/2000/svg">
<g clip-path="url(#clip0)">
<path d="M21.6136 5.49985H18.1439V5.14338C18.1439 3.55082 16.8513 2.2583 15.2588 2.2583H9.74058C8.14738 2.2583 6.85551 3.55082 6.85551 5.14338V5.49985H3.38508C1.79187 5.49985 0.5 6.79172 0.5 8.38492V18.8571C0.5 20.4497 1.79187 21.7422 3.38508 21.7422H21.6149C23.2081 21.7422 24.5 20.4497 24.5 18.8571V8.38492C24.4987 6.79108 23.2068 5.49985 21.6136 5.49985ZM12.4987 18.7494C9.49311 18.7494 7.04913 16.3054 7.04913 13.2998C7.04913 10.2948 9.49311 7.85022 12.4987 7.85022C15.5043 7.85022 17.9483 10.2942 17.9483 13.2998C17.9483 16.3054 15.5037 18.7494 12.4987 18.7494ZM15.3838 13.2998C15.3838 14.8892 14.0887 16.1849 12.4987 16.1849C10.9087 16.1849 9.61364 14.8892 9.61364 13.2998C9.61364 11.7098 10.9087 10.4147 12.4987 10.4147C14.0887 10.4147 15.3838 11.7098 15.3838 13.2998Z" fill="white"/>
</g>
<defs>
<clipPath id="clip0">
<rect width="24" height="24" fill="white" transform="translate(0.5)"/>
</clipPath>
</defs>
</svg>
