<svg width="285" height="190" viewBox="0 0 285 190" fill="none" xmlns="http://www.w3.org/2000/svg">
<rect x="0.5" y="0.5" width="284" height="189" fill="#E2E2E2" stroke="#DFDFDF"/>
<g clip-path="url(#clip0)">
<path d="M167.643 58.1426H117.357C113.57 58.1426 110.5 61.2126 110.5 64.9997V96.9996C110.5 100.787 113.57 103.857 117.357 103.857H167.643C171.43 103.857 174.5 100.787 174.5 96.9996V64.9997C174.5 61.2126 171.43 58.1426 167.643 58.1426ZM169.928 84.6248L155.545 70.2409C154.652 69.3485 153.205 69.3485 152.313 70.2409L133.357 89.1962L125.83 81.6693C124.938 80.7769 123.491 80.7769 122.598 81.6693L115.071 89.1962V64.9997C115.071 63.7373 116.095 62.714 117.357 62.714H167.643C168.905 62.714 169.929 63.7373 169.929 64.9997V84.6248H169.928Z" fill="white"/>
<path d="M131.071 80.9999C134.858 80.9999 137.928 77.9299 137.928 74.1428C137.928 70.3557 134.858 67.2856 131.071 67.2856C127.284 67.2856 124.214 70.3557 124.214 74.1428C124.214 77.9299 127.284 80.9999 131.071 80.9999Z" fill="white"/>
</g>
<path d="M42.0781 126.818H34.223V137H35.7543V128.131H40.5469V137H42.0781V126.818ZM47.5245 137.154C49.6772 137.154 51.0842 135.578 51.0842 133.217C51.0842 130.84 49.6772 129.264 47.5245 129.264C45.3718 129.264 43.9648 130.84 43.9648 133.217C43.9648 135.578 45.3718 137.154 47.5245 137.154ZM47.5295 135.906C46.1225 135.906 45.4663 134.678 45.4663 133.212C45.4663 131.75 46.1225 130.507 47.5295 130.507C48.9265 130.507 49.5827 131.75 49.5827 133.212C49.5827 134.678 48.9265 135.906 47.5295 135.906ZM52.1419 137H52.6191C54.2846 137 54.8961 135.767 55.0154 133.241L55.1348 130.646H57.6305V137H59.0872V129.364H53.7576L53.6234 132.744C53.5289 135.101 53.2605 135.712 52.4103 135.712H52.1369L52.1419 137ZM62.5263 131.989V129.364H61.0696V137H64.4055C66.2749 137 67.3189 135.916 67.3189 134.479C67.3189 133.013 66.2749 131.989 64.4055 131.989H62.5263ZM62.5263 133.271H64.4055C65.2607 133.271 65.8722 133.788 65.8722 134.524C65.8722 135.22 65.2607 135.717 64.4055 135.717H62.5263V133.271ZM68.5332 134.982C68.5779 136.314 69.8258 137.154 71.5211 137.154C73.2612 137.154 74.519 136.279 74.519 134.877C74.519 133.883 73.8876 133.147 73.0027 133.087V133.008C73.8031 132.779 74.3549 132.242 74.3549 131.402C74.3549 130.149 73.2811 129.264 71.5808 129.264C69.9501 129.264 68.752 130.134 68.7221 131.417H70.2235C70.2534 130.845 70.845 130.447 71.6554 130.447C72.4558 130.447 72.9231 130.865 72.9231 131.487C72.9231 132.068 72.5055 132.496 71.6653 132.496H70.4224V133.664H71.6653C72.5105 133.664 73.0524 134.131 73.0524 134.822C73.0524 135.603 72.3613 135.956 71.5062 135.956C70.666 135.956 70.0993 135.608 70.0545 134.982H68.5332ZM79.2706 137.154C81.4233 137.154 82.8303 135.578 82.8303 133.217C82.8303 130.84 81.4233 129.264 79.2706 129.264C77.1179 129.264 75.7109 130.84 75.7109 133.217C75.7109 135.578 77.1179 137.154 79.2706 137.154ZM79.2756 135.906C77.8686 135.906 77.2124 134.678 77.2124 133.212C77.2124 131.75 77.8686 130.507 79.2756 130.507C80.6726 130.507 81.3288 131.75 81.3288 133.212C81.3288 134.678 80.6726 135.906 79.2756 135.906ZM84.4895 137H88.1387C89.8091 137 90.7885 136.155 90.7885 134.942C90.7885 133.808 89.9185 133.112 88.8993 132.993C89.839 132.814 90.4604 132.297 90.4604 131.402C90.4604 130.149 89.3766 129.364 87.6564 129.364H84.4895V137ZM85.8865 135.757V133.634H88.1387C88.8745 133.634 89.3169 134.067 89.3169 134.778C89.3169 135.384 88.8745 135.757 88.1387 135.757H85.8865ZM85.8865 132.545V130.621H87.6564C88.5016 130.621 89.0137 130.974 89.0137 131.561C89.0137 132.173 88.5066 132.545 87.6713 132.545H85.8865ZM94.6415 137.169C95.9043 137.169 96.6152 136.528 96.8986 135.956H96.9583V137H98.41V131.929C98.41 129.707 96.66 129.264 95.4469 129.264C94.0648 129.264 92.7921 129.821 92.2949 131.213L93.6919 131.531C93.9107 130.989 94.4675 130.467 95.4668 130.467C96.4263 130.467 96.9185 130.969 96.9185 131.835V131.869C96.9185 132.411 96.3617 132.401 94.9895 132.56C93.5428 132.729 92.0613 133.107 92.0613 134.842C92.0613 136.344 93.1898 137.169 94.6415 137.169ZM94.9647 135.976C94.1245 135.976 93.5179 135.598 93.5179 134.862C93.5179 134.067 94.2239 133.783 95.084 133.669C95.5662 133.604 96.7097 133.475 96.9235 133.261V134.246C96.9235 135.151 96.2026 135.976 94.9647 135.976ZM99.4428 130.646H101.944V137H103.395V130.646H105.886V129.364H99.4428V130.646ZM110.394 137.154C112.059 137.154 113.238 136.334 113.576 135.091L112.169 134.837C111.9 135.558 111.254 135.926 110.409 135.926C109.136 135.926 108.281 135.101 108.241 133.629H113.67V133.102C113.67 130.343 112.02 129.264 110.29 129.264C108.162 129.264 106.76 130.885 106.76 133.232C106.76 135.603 108.142 137.154 110.394 137.154ZM108.246 132.516C108.306 131.432 109.091 130.492 110.3 130.492C111.453 130.492 112.209 131.347 112.214 132.516H108.246ZM114.718 137H115.195C116.861 137 117.472 135.767 117.592 133.241L117.711 130.646H120.207V137H121.663V129.364H116.334L116.2 132.744C116.105 135.101 115.837 135.712 114.987 135.712H114.713L114.718 137ZM125.102 131.989V129.364H123.646V137H126.982C128.851 137 129.895 135.916 129.895 134.479C129.895 133.013 128.851 131.989 126.982 131.989H125.102ZM125.102 133.271H126.982C127.837 133.271 128.448 133.788 128.448 134.524C128.448 135.22 127.837 135.717 126.982 135.717H125.102V133.271ZM136.724 129.364H135.267V137H136.724V133.828H140.03V137H141.481V129.364H140.03V132.54H136.724V129.364ZM146.761 137.154C148.427 137.154 149.605 136.334 149.943 135.091L148.536 134.837C148.268 135.558 147.621 135.926 146.776 135.926C145.503 135.926 144.648 135.101 144.608 133.629H150.037V133.102C150.037 130.343 148.387 129.264 146.657 129.264C144.529 129.264 143.127 130.885 143.127 133.232C143.127 135.603 144.509 137.154 146.761 137.154ZM144.613 132.516C144.673 131.432 145.459 130.492 146.667 130.492C147.82 130.492 148.576 131.347 148.581 132.516H144.613ZM154.646 139.202H156.118V137H161.442V139.202H162.894V135.712H161.721V129.364H156.53L156.292 132.212C156.133 134.136 155.899 135.141 155.268 135.712H154.646V139.202ZM156.858 135.712C157.366 135.001 157.555 133.818 157.704 132.212L157.863 130.636H160.269V135.712H156.858ZM167.564 137.154C169.716 137.154 171.123 135.578 171.123 133.217C171.123 130.84 169.716 129.264 167.564 129.264C165.411 129.264 164.004 130.84 164.004 133.217C164.004 135.578 165.411 137.154 167.564 137.154ZM167.569 135.906C166.162 135.906 165.505 134.678 165.505 133.212C165.505 131.75 166.162 130.507 167.569 130.507C168.966 130.507 169.622 131.75 169.622 133.212C169.622 134.678 168.966 135.906 167.569 135.906ZM178.674 126.52C178.301 126.818 177.734 126.818 176.944 126.813C176.71 126.813 176.456 126.813 176.178 126.818C173.702 126.868 172.449 128.628 172.449 132.118V132.874C172.449 135.678 173.841 137.154 175.974 137.154C178.107 137.154 179.489 135.673 179.489 133.296C179.489 130.95 178.132 129.652 176.292 129.652C175.184 129.652 174.259 130.124 173.762 131.069H173.667C173.836 129.135 174.562 128.175 176.213 128.126C177.68 128.081 178.609 128.086 179.29 127.46L178.674 126.52ZM175.979 135.906C174.716 135.906 173.946 134.897 173.946 133.321C173.966 131.775 174.726 130.89 175.964 130.89C177.222 130.89 177.988 131.775 177.988 133.321C177.988 134.902 177.222 135.906 175.979 135.906ZM183.372 137.169C184.635 137.169 185.346 136.528 185.629 135.956H185.689V137H187.14V131.929C187.14 129.707 185.39 129.264 184.177 129.264C182.795 129.264 181.523 129.821 181.025 131.213L182.422 131.531C182.641 130.989 183.198 130.467 184.197 130.467C185.157 130.467 185.649 130.969 185.649 131.835V131.869C185.649 132.411 185.092 132.401 183.72 132.56C182.273 132.729 180.792 133.107 180.792 134.842C180.792 136.344 181.92 137.169 183.372 137.169ZM183.695 135.976C182.855 135.976 182.248 135.598 182.248 134.862C182.248 134.067 182.954 133.783 183.814 133.669C184.297 133.604 185.44 133.475 185.654 133.261V134.246C185.654 135.151 184.933 135.976 183.695 135.976ZM189.12 137H192.77C194.44 137 195.419 136.155 195.419 134.942C195.419 133.808 194.549 133.112 193.53 132.993C194.47 132.814 195.091 132.297 195.091 131.402C195.091 130.149 194.007 129.364 192.287 129.364H189.12V137ZM190.517 135.757V133.634H192.77C193.505 133.634 193.948 134.067 193.948 134.778C193.948 135.384 193.505 135.757 192.77 135.757H190.517ZM190.517 132.545V130.621H192.287C193.132 130.621 193.645 130.974 193.645 131.561C193.645 132.173 193.137 132.545 192.302 132.545H190.517ZM198.507 134.917V129.364H197.05V137H198.666L202.017 131.442V137H203.473V129.364H201.873L198.507 134.917ZM204.87 137H205.348C207.013 137 207.625 135.767 207.744 133.241L207.863 130.646H210.359V137H211.816V129.364H206.486L206.352 132.744C206.257 135.101 205.989 135.712 205.139 135.712H204.865L204.87 137ZM220.789 139.6H222.276V137.154C224.434 137.154 225.9 135.573 225.9 133.217C225.9 130.845 224.434 129.264 222.276 129.264V126.818H220.789V129.264C218.632 129.264 217.16 130.845 217.16 133.217C217.16 135.573 218.632 137.154 220.789 137.154V139.6ZM220.789 135.901C219.363 135.901 218.667 134.663 218.667 133.217C218.667 131.77 219.363 130.517 220.789 130.517V135.901ZM222.276 135.901V130.517C223.703 130.517 224.394 131.77 224.394 133.217C224.394 134.663 223.703 135.901 222.276 135.901ZM230.769 137.154C232.921 137.154 234.328 135.578 234.328 133.217C234.328 130.84 232.921 129.264 230.769 129.264C228.616 129.264 227.209 130.84 227.209 133.217C227.209 135.578 228.616 137.154 230.769 137.154ZM230.774 135.906C229.367 135.906 228.71 134.678 228.71 133.212C228.71 131.75 229.367 130.507 230.774 130.507C232.171 130.507 232.827 131.75 232.827 133.212C232.827 134.678 232.171 135.906 230.774 135.906ZM235.068 130.646H237.569V137H239.02V130.646H241.511V129.364H235.068V130.646ZM245.944 137.154C248.097 137.154 249.504 135.578 249.504 133.217C249.504 130.84 248.097 129.264 245.944 129.264C243.792 129.264 242.385 130.84 242.385 133.217C242.385 135.578 243.792 137.154 245.944 137.154ZM245.949 135.906C244.542 135.906 243.886 134.678 243.886 133.212C243.886 131.75 244.542 130.507 245.949 130.507C247.346 130.507 248.003 131.75 248.003 133.212C248.003 134.678 247.346 135.906 245.949 135.906Z" fill="#121213"/>
<defs>
<clipPath id="clip0">
<rect width="64" height="64" fill="white" transform="translate(110.5 49)"/>
</clipPath>
</defs>
</svg>
