<svg width="60" height="60" viewBox="0 0 60 60" fill="none" xmlns="http://www.w3.org/2000/svg">
<rect width="60" height="60" rx="30" fill="#E56366"/>
<g clip-path="url(#clip0_444_15937)">
<path d="M40.7999 28.8002H31.2001V19.2002C31.2001 18.5379 30.6624 18.0002 29.9999 18.0002C29.3377 18.0002 28.8 18.5379 28.8 19.2002V28.8002H19.1999C18.5377 28.8002 18 29.3379 18 30.0002C18 30.6626 18.5377 31.2003 19.1999 31.2003H28.8V40.8002C28.8 41.4626 29.3377 42.0003 29.9999 42.0003C30.6624 42.0003 31.2001 41.4626 31.2001 40.8002V31.2003H40.7999C41.4624 31.2003 42.0001 30.6626 42.0001 30.0002C42.0001 29.3379 41.4624 28.8002 40.7999 28.8002Z" fill="white"/>
</g>
<defs>
<clipPath id="clip0_444_15937">
<rect width="24" height="24" fill="white" transform="translate(18 18)"/>
</clipPath>
</defs>
</svg>
