<svg width="20" height="24" viewBox="0 0 20 24" fill="none" xmlns="http://www.w3.org/2000/svg">
<path d="M1.92101 9.22052C-0.0204563 12.4747 1.22208 17.5077 3.36324 20.5341C4.47265 22.0526 5.5155 23.4085 7.00211 23.4085H7.09086C7.67646 23.3724 8.24924 23.225 8.77717 22.9747C9.39829 22.6738 10.081 22.5144 10.7741 22.5082C11.4361 22.5154 12.0881 22.6674 12.6823 22.953C13.246 23.2338 13.869 23.3824 14.5017 23.3868C16.1769 23.3868 17.2087 21.8899 18.1073 20.5883C18.7878 19.6157 19.322 18.5527 19.6938 17.4318C19.709 17.3885 19.7073 17.3412 19.6888 17.299C19.6704 17.2569 19.6365 17.223 19.5939 17.204C18.7298 16.8424 17.9936 16.2403 17.4768 15.4727C16.96 14.7051 16.6854 13.8058 16.6873 12.8868C16.6984 12.076 16.9188 11.2809 17.328 10.5756C17.7373 9.87016 18.322 9.27722 19.0281 8.85172C19.0704 8.82267 19.1016 8.7807 19.1169 8.7324C19.1338 8.68686 19.1338 8.63693 19.1169 8.59139C18.6355 7.91359 17.9984 7.35548 17.2567 6.96179C16.515 6.5681 15.6892 6.34979 14.8456 6.32434H14.4795C13.55 6.37804 12.6392 6.60251 11.7948 6.98601C11.3874 7.17198 10.9535 7.29633 10.5078 7.35482C10.035 7.29159 9.57703 7.14845 9.15437 6.93178C8.41762 6.59897 7.62366 6.40398 6.81351 6.35688C5.81319 6.37457 4.83507 6.64827 3.97664 7.15072C3.11821 7.65316 2.40946 8.36681 1.92101 9.22052Z" fill="white"/>
<path d="M14.8133 0.976782C13.4767 1.09649 12.2398 1.71868 11.363 2.71232C10.9187 3.19116 10.5793 3.7538 10.3656 4.36565C10.1519 4.97751 10.0685 5.62563 10.1205 6.27017C10.1252 6.31172 10.1443 6.35045 10.1745 6.38002C10.2048 6.40958 10.2444 6.42822 10.2869 6.43288H10.531C11.1652 6.39891 11.7847 6.2322 12.3474 5.94401C12.9101 5.65583 13.4029 5.25288 13.7926 4.76242C14.675 3.74812 15.1134 2.43491 15.013 1.10695C15.0003 1.06596 14.9735 1.03055 14.937 1.0068C14.9006 0.983052 14.8569 0.972437 14.8133 0.976782Z" fill="white"/>
</svg>
