<svg width="88" height="24" viewBox="0 0 88 24" fill="none" xmlns="http://www.w3.org/2000/svg">
<rect width="88" height="24" rx="5" fill="#E56366"/>
<path d="M5.44211 9.75121C4.01836 11.9826 4.92956 15.4339 6.49975 17.5091C7.31331 18.5504 8.07807 19.4801 9.16825 19.4801H9.23333C9.66277 19.4554 10.0828 19.3543 10.47 19.1826C10.9254 18.9763 11.4261 18.867 11.9344 18.8628C12.4199 18.8677 12.898 18.9719 13.3337 19.1677C13.7471 19.3603 14.204 19.4622 14.668 19.4653C15.8965 19.4653 16.6531 18.4388 17.3121 17.5463C17.8111 16.8793 18.2029 16.1504 18.4755 15.3818C18.4867 15.3521 18.4854 15.3196 18.4718 15.2908C18.4583 15.2619 18.4335 15.2387 18.4022 15.2256C17.7686 14.9776 17.2287 14.5648 16.8497 14.0384C16.4707 13.512 16.2693 12.8954 16.2707 12.2653C16.2789 11.7092 16.4405 11.1641 16.7406 10.6804C17.0407 10.1967 17.4695 9.79009 17.9873 9.49832C18.0183 9.4784 18.0412 9.44962 18.0524 9.4165C18.0648 9.38527 18.0648 9.35103 18.0524 9.3198C17.6994 8.85503 17.2322 8.47233 16.6883 8.20237C16.1443 7.93241 15.5388 7.78271 14.9202 7.76526H14.6517C13.9701 7.80208 13.3021 7.956 12.6829 8.21898C12.3841 8.3465 12.0659 8.43177 11.7391 8.47187C11.3924 8.42852 11.0565 8.33036 10.7466 8.18179C10.2063 7.95358 9.62405 7.81987 9.02994 7.78757C8.29637 7.7997 7.57908 7.98738 6.94957 8.33192C6.32006 8.67645 5.8003 9.16581 5.44211 9.75121Z" fill="white"/>
<path d="M14.8962 4.09843C13.9161 4.18051 13.009 4.60716 12.3661 5.28852C12.0402 5.61686 11.7913 6.00267 11.6346 6.42223C11.4779 6.84179 11.4167 7.28621 11.4549 7.72818C11.4584 7.75667 11.4723 7.78323 11.4945 7.80351C11.5167 7.82378 11.5457 7.83656 11.5769 7.83975H11.7559C12.221 7.81646 12.6753 7.70215 13.0879 7.50453C13.5005 7.30692 13.862 7.03062 14.1478 6.6943C14.7948 5.99878 15.1163 5.09829 15.0427 4.18769C15.0334 4.15958 15.0137 4.1353 14.987 4.11902C14.9603 4.10273 14.9282 4.09545 14.8962 4.09843Z" fill="white"/>
<path d="M31.3911 7.87455V8.98043H31.1V8.12149H27.2976L27.2916 8.98043H27.0005L27.0064 7.87455H27.2322C27.5055 7.85307 27.6956 7.6455 27.8026 7.25182C27.9135 6.85814 27.9808 6.30699 28.0046 5.59837L28.0462 4.36365H30.7494V7.87455H31.3911ZM28.2838 5.61984C28.26 6.22825 28.2066 6.72572 28.1234 7.11224C28.0442 7.49876 27.9075 7.75286 27.7134 7.87455H30.4464V4.61059H28.3195L28.2838 5.61984Z" fill="white"/>
<path d="M33.3905 8.14296C33.0974 8.14296 32.832 8.08212 32.5944 7.96044C32.3607 7.83876 32.1765 7.67055 32.0419 7.45582C31.9072 7.2375 31.8398 6.99235 31.8398 6.72035C31.8398 6.44836 31.9072 6.20499 32.0419 5.99026C32.1765 5.77194 32.3607 5.60195 32.5944 5.48026C32.832 5.35858 33.0974 5.29774 33.3905 5.29774C33.6836 5.29774 33.947 5.35858 34.1807 5.48026C34.4184 5.60195 34.6045 5.77194 34.7392 5.99026C34.8739 6.20499 34.9412 6.44836 34.9412 6.72035C34.9412 6.99235 34.8739 7.2375 34.7392 7.45582C34.6045 7.67055 34.4184 7.83876 34.1807 7.96044C33.947 8.08212 33.6836 8.14296 33.3905 8.14296ZM33.3905 7.90139C33.6282 7.90139 33.8401 7.85128 34.0262 7.75107C34.2164 7.65087 34.3649 7.51129 34.4718 7.33234C34.5827 7.1534 34.6382 6.9494 34.6382 6.72035C34.6382 6.4913 34.5827 6.28731 34.4718 6.10836C34.3649 5.92942 34.2164 5.78984 34.0262 5.68963C33.8401 5.58942 33.6282 5.53932 33.3905 5.53932C33.1529 5.53932 32.939 5.58942 32.7489 5.68963C32.5627 5.78984 32.4142 5.92942 32.3033 6.10836C32.1963 6.28731 32.1429 6.4913 32.1429 6.72035C32.1429 6.9494 32.1963 7.1534 32.3033 7.33234C32.4142 7.51129 32.5627 7.65087 32.7489 7.75107C32.939 7.85128 33.1529 7.90139 33.3905 7.90139Z" fill="white"/>
<path d="M37.1623 8.14296C36.8612 8.14296 36.5919 8.08212 36.3542 7.96044C36.1166 7.83876 35.9304 7.67055 35.7958 7.45582C35.6611 7.2375 35.5938 6.99235 35.5938 6.72035C35.5938 6.44478 35.6611 6.19962 35.7958 5.98489C35.9304 5.76658 36.1166 5.59837 36.3542 5.48026C36.5919 5.35858 36.8612 5.29774 37.1623 5.29774C37.4118 5.29774 37.6376 5.34248 37.8396 5.43195C38.0455 5.51784 38.2119 5.64489 38.3386 5.8131L38.1188 5.95805C38.0079 5.81847 37.8693 5.71468 37.7029 5.64668C37.5405 5.5751 37.3603 5.53932 37.1623 5.53932C36.9206 5.53932 36.7028 5.58942 36.5087 5.68963C36.3186 5.78626 36.1681 5.92405 36.0572 6.10299C35.9502 6.28194 35.8968 6.48772 35.8968 6.72035C35.8968 6.95298 35.9502 7.15877 36.0572 7.33771C36.1681 7.51666 36.3186 7.65623 36.5087 7.75644C36.7028 7.85307 36.9206 7.90139 37.1623 7.90139C37.3603 7.90139 37.5405 7.86739 37.7029 7.79939C37.8693 7.72781 38.0079 7.62223 38.1188 7.48266L38.3386 7.6276C38.2119 7.79581 38.0455 7.92465 37.8396 8.01412C37.6376 8.10002 37.4118 8.14296 37.1623 8.14296Z" fill="white"/>
<path d="M41.2197 5.56079H40.0077V8.12149H39.7106V5.56079H38.4986V5.31921H41.2197V5.56079Z" fill="white"/>
<path d="M44.3866 5.31921L42.7943 8.50264C42.6755 8.74959 42.5369 8.92495 42.3784 9.02874C42.224 9.13253 42.0398 9.18442 41.8259 9.18442C41.6833 9.18442 41.5486 9.16295 41.4219 9.12C41.2991 9.07706 41.1941 9.01443 41.107 8.93211L41.2555 8.72811C41.414 8.87485 41.6061 8.94822 41.8318 8.94822C41.9823 8.94822 42.1111 8.91064 42.218 8.83548C42.325 8.76032 42.424 8.63148 42.5151 8.44896L42.6814 8.11075L41.2852 5.31921H41.6001L42.8418 7.82623L44.0836 5.31921H44.3866Z" fill="white"/>
<path d="M47.8141 5.31921V8.12149H47.517V5.56079H45.4019V8.12149H45.1049V5.31921H47.8141Z" fill="white"/>
<path d="M49.0967 5.31921H49.3937V6.59688H51.4969V5.31921H51.794V8.12149H51.4969V6.83309H49.3937V8.12149H49.0967V5.31921Z" fill="white"/>
<path d="M54.3127 8.14296C54.0195 8.14296 53.7542 8.08212 53.5165 7.96044C53.2828 7.83876 53.0986 7.67055 52.964 7.45582C52.8293 7.2375 52.762 6.99235 52.762 6.72035C52.762 6.44836 52.8293 6.20499 52.964 5.99026C53.0986 5.77194 53.2828 5.60195 53.5165 5.48026C53.7542 5.35858 54.0195 5.29774 54.3127 5.29774C54.6058 5.29774 54.8692 5.35858 55.1028 5.48026C55.3405 5.60195 55.5267 5.77194 55.6613 5.99026C55.796 6.20499 55.8633 6.44836 55.8633 6.72035C55.8633 6.99235 55.796 7.2375 55.6613 7.45582C55.5267 7.67055 55.3405 7.83876 55.1028 7.96044C54.8692 8.08212 54.6058 8.14296 54.3127 8.14296ZM54.3127 7.90139C54.5503 7.90139 54.7622 7.85128 54.9484 7.75107C55.1385 7.65087 55.287 7.51129 55.394 7.33234C55.5049 7.1534 55.5603 6.9494 55.5603 6.72035C55.5603 6.4913 55.5049 6.28731 55.394 6.10836C55.287 5.92942 55.1385 5.78984 54.9484 5.68963C54.7622 5.58942 54.5503 5.53932 54.3127 5.53932C54.075 5.53932 53.8611 5.58942 53.671 5.68963C53.4848 5.78984 53.3363 5.92942 53.2254 6.10836C53.1185 6.28731 53.065 6.4913 53.065 6.72035C53.065 6.9494 53.1185 7.1534 53.2254 7.33234C53.3363 7.51129 53.4848 7.65087 53.671 7.75107C53.8611 7.85128 54.075 7.90139 54.3127 7.90139Z" fill="white"/>
<path d="M58.3567 5.31921H58.6538V6.59688H60.757V5.31921H61.0541V8.12149H60.757V6.83309H58.6538V8.12149H58.3567V5.31921Z" fill="white"/>
<path d="M63.3647 5.29774C63.749 5.29774 64.044 5.38721 64.25 5.56616C64.456 5.74152 64.5589 6.00099 64.5589 6.34457V8.12149H64.2738V7.62223C64.1747 7.78686 64.0302 7.9157 63.8401 8.00876C63.6499 8.09823 63.4222 8.14296 63.1568 8.14296C62.8122 8.14296 62.5389 8.0696 62.3369 7.92286C62.1389 7.77613 62.0398 7.58287 62.0398 7.34308C62.0398 7.11045 62.1309 6.92256 62.3131 6.7794C62.4993 6.63267 62.7944 6.5593 63.1984 6.5593H64.2619V6.33383C64.2619 6.07257 64.1827 5.87394 64.0242 5.73794C63.8698 5.60195 63.642 5.53395 63.341 5.53395C63.135 5.53395 62.937 5.56616 62.7469 5.63058C62.5607 5.695 62.4023 5.78089 62.2716 5.88826L62.123 5.695C62.2775 5.56974 62.4637 5.47311 62.6815 5.40511C62.8993 5.33353 63.1271 5.29774 63.3647 5.29774ZM63.1984 7.92286C63.4558 7.92286 63.6737 7.86918 63.8519 7.76181C64.0341 7.65444 64.1708 7.49876 64.2619 7.29477V6.76867H63.2043C62.8993 6.76867 62.6775 6.81877 62.5389 6.91898C62.4042 7.01919 62.3369 7.15698 62.3369 7.33234C62.3369 7.51487 62.4122 7.65981 62.5627 7.76718C62.7132 7.87097 62.9251 7.92286 63.1984 7.92286Z" fill="white"/>
<path d="M31.6847 16.0702H28.6604L27.9812 17.7726H26.9995L29.7561 11.25H30.589L33.3506 17.7726H32.3739L31.6847 16.0702ZM28.948 15.3624H31.4021L30.1726 12.3117L28.948 15.3624Z" fill="white"/>
<path d="M38.71 15.4028C38.71 16.1404 38.5233 16.7347 38.1498 17.1857C37.7763 17.6367 37.2706 17.8622 36.6327 17.8622C35.9815 17.8622 35.4692 17.6755 35.0957 17.3022V19.6362H34.1785V12.9254H35.0164L35.061 13.463C35.4345 13.0449 35.9535 12.8358 36.6178 12.8358C37.2623 12.8358 37.7713 13.0553 38.1448 13.4944C38.5216 13.9334 38.71 14.5441 38.71 15.3266V15.4028ZM37.7928 15.3087C37.7928 14.7621 37.6639 14.3306 37.4061 14.014C37.1483 13.6975 36.7946 13.5392 36.3451 13.5392C35.7898 13.5392 35.3734 13.7617 35.0957 14.2067V16.5227C35.3701 16.9647 35.7898 17.1857 36.355 17.1857C36.7946 17.1857 37.1433 17.0289 37.4012 16.7153C37.6623 16.3988 37.7928 15.9299 37.7928 15.3087Z" fill="white"/>
<path d="M44.4116 15.4028C44.4116 16.1404 44.2249 16.7347 43.8514 17.1857C43.4779 17.6367 42.9722 17.8622 42.3342 17.8622C41.6831 17.8622 41.1708 17.6755 40.7973 17.3022V19.6362H39.8801V12.9254H40.718L40.7626 13.463C41.1361 13.0449 41.655 12.8358 42.3194 12.8358C42.9639 12.8358 43.4729 13.0553 43.8464 13.4944C44.2232 13.9334 44.4116 14.5441 44.4116 15.3266V15.4028ZM43.4944 15.3087C43.4944 14.7621 43.3655 14.3306 43.1077 14.014C42.8499 13.6975 42.4962 13.5392 42.0467 13.5392C41.4914 13.5392 41.0749 13.7617 40.7973 14.2067V16.5227C41.0716 16.9647 41.4914 17.1857 42.0566 17.1857C42.4962 17.1857 42.8449 17.0289 43.1027 16.7153C43.3638 16.3988 43.4944 15.9299 43.4944 15.3087Z" fill="white"/>
<path d="M50.371 14.8652C49.5546 14.6531 48.9596 14.3933 48.5861 14.0857C48.216 13.7751 48.0309 13.3928 48.0309 12.9389C48.0309 12.4252 48.2573 12.0011 48.7101 11.6666C49.1662 11.3291 49.7579 11.1604 50.485 11.1604C50.9808 11.1604 51.422 11.247 51.8088 11.4202C52.1988 11.5934 52.4996 11.8324 52.7111 12.137C52.9259 12.4416 53.0334 12.7746 53.0334 13.136H52.0765C52.0765 12.7418 51.9377 12.4327 51.66 12.2087C51.3824 11.9817 50.9907 11.8682 50.485 11.8682C50.0157 11.8682 49.6488 11.9623 49.3844 12.1504C49.1232 12.3356 48.9927 12.5939 48.9927 12.9254C48.9927 13.1912 49.1166 13.4167 49.3645 13.6019C49.6157 13.7841 50.0405 13.9513 50.6387 14.1036C51.2403 14.2559 51.7096 14.4247 52.0467 14.6098C52.3872 14.792 52.6384 15.0055 52.8003 15.2504C52.9656 15.4953 53.0482 15.7835 53.0482 16.115C53.0482 16.6437 52.8202 17.0677 52.364 17.3873C51.9079 17.7039 51.2981 17.8622 50.5346 17.8622C50.0388 17.8622 49.5761 17.777 49.1464 17.6068C48.7167 17.4336 48.3845 17.1977 48.1498 16.899C47.9185 16.6004 47.8028 16.2614 47.8028 15.8821H48.7597C48.7597 16.2763 48.92 16.5884 49.2406 16.8184C49.5645 17.0453 49.9958 17.1588 50.5346 17.1588C51.037 17.1588 51.422 17.0662 51.6898 16.8811C51.9575 16.6959 52.0914 16.4436 52.0914 16.124C52.0914 15.8044 51.9674 15.5581 51.7195 15.3848C51.4716 15.2086 51.0221 15.0354 50.371 14.8652Z" fill="white"/>
<path d="M55.3735 11.7517V12.9254H56.375V13.566H55.3735V16.572C55.3735 16.7661 55.4181 16.9124 55.5073 17.011C55.5966 17.1066 55.7486 17.1543 55.9635 17.1543C56.0692 17.1543 56.2147 17.1364 56.3998 17.1006V17.7726C56.1585 17.8323 55.9238 17.8622 55.6957 17.8622C55.2859 17.8622 54.9769 17.7502 54.7686 17.5262C54.5604 17.3022 54.4563 16.9841 54.4563 16.572V13.566H53.4796V12.9254H54.4563V11.7517H55.3735Z" fill="white"/>
<path d="M57.1087 15.3042C57.1087 14.8293 57.2112 14.4023 57.4161 14.023C57.6244 13.6437 57.9119 13.351 58.2788 13.1449C58.649 12.9389 59.0704 12.8358 59.5431 12.8358C60.2735 12.8358 60.8635 13.0643 61.313 13.5212C61.7659 13.9782 61.9923 14.5859 61.9923 15.3445V15.4028C61.9923 15.8746 61.8914 16.2987 61.6898 16.675C61.4915 17.0483 61.2056 17.3395 60.8321 17.5486C60.4619 17.7576 60.0355 17.8622 59.553 17.8622C58.8258 17.8622 58.2358 17.6337 57.783 17.1767C57.3335 16.7198 57.1087 16.115 57.1087 15.3624V15.3042ZM58.0309 15.4028C58.0309 15.9403 58.1681 16.3719 58.4424 16.6974C58.7201 17.0229 59.0902 17.1857 59.553 17.1857C60.019 17.1857 60.3892 17.0215 60.6635 16.6929C60.9379 16.3614 61.0751 15.8985 61.0751 15.3042C61.0751 14.7726 60.9346 14.3425 60.6536 14.014C60.376 13.6825 60.0058 13.5168 59.5431 13.5168C59.0902 13.5168 58.725 13.6795 58.4474 14.0051C58.1697 14.3306 58.0309 14.7965 58.0309 15.4028Z" fill="white"/>
<path d="M65.7355 13.6691C65.5966 13.6482 65.4463 13.6377 65.2843 13.6377C64.6827 13.6377 64.2745 13.8692 64.0597 14.3321V17.7726H63.1425V12.9254H64.0349L64.0498 13.4854C64.3506 13.0524 64.7769 12.8358 65.3289 12.8358C65.5074 12.8358 65.6429 12.8567 65.7355 12.8986V13.6691Z" fill="white"/>
<path d="M68.7102 17.8622C67.983 17.8622 67.3914 17.6471 66.9353 17.2171C66.4791 16.784 66.2511 16.2061 66.2511 15.4834V15.3311C66.2511 14.8502 66.3519 14.4217 66.5535 14.0454C66.7584 13.6661 67.0427 13.3704 67.4063 13.1584C67.7732 12.9434 68.1698 12.8358 68.5962 12.8358C69.2936 12.8358 69.8356 13.0434 70.2223 13.4585C70.6091 13.8737 70.8024 14.468 70.8024 15.2415V15.5864H67.1683C67.1815 16.0643 67.3352 16.451 67.6294 16.7467C67.9268 17.0394 68.3036 17.1857 68.7598 17.1857C69.0837 17.1857 69.358 17.126 69.5828 17.0065C69.8075 16.8871 70.0042 16.7288 70.1728 16.5317L70.733 16.9259C70.2835 17.5501 69.6092 17.8622 68.7102 17.8622ZM68.5962 13.5168C68.226 13.5168 67.9153 13.6392 67.6641 13.8841C67.4129 14.126 67.2575 14.4665 67.198 14.9055H69.8852V14.8428C69.8588 14.4217 69.7332 14.0962 69.5084 13.8662C69.2837 13.6332 68.9796 13.5168 68.5962 13.5168Z" fill="white"/>
</svg>
