<svg width="121" height="35" viewBox="0 0 121 35" fill="none" xmlns="http://www.w3.org/2000/svg">
<rect x="0.5" width="120" height="35" rx="5" fill="#E56366"/>
<path d="M7.9215 14.2206C5.98003 17.4747 7.22257 22.5078 9.36373 25.5341C10.4731 27.0527 11.516 28.4086 13.0026 28.4086H13.0914C13.6769 28.3725 14.2497 28.2251 14.7777 27.9747C15.3988 27.6739 16.0815 27.5145 16.7746 27.5083C17.4366 27.5155 18.0886 27.6675 18.6828 27.953C19.2465 28.2339 19.8695 28.3825 20.5022 28.3869C22.1774 28.3869 23.2092 26.89 24.1078 25.5884C24.7883 24.6158 25.3225 23.5528 25.6942 22.4319C25.7095 22.3886 25.7078 22.3412 25.6893 22.2991C25.6708 22.257 25.637 22.2231 25.5944 22.2041C24.7303 21.8424 23.9941 21.2404 23.4773 20.4728C22.9604 19.7052 22.6859 18.8059 22.6877 17.8869C22.6989 17.076 22.9193 16.281 23.3285 15.5756C23.7377 14.8702 24.3225 14.2773 25.0286 13.8518C25.0709 13.8228 25.1021 13.7808 25.1174 13.7325C25.1343 13.6869 25.1343 13.637 25.1174 13.5915C24.636 12.9137 23.9989 12.3556 23.2572 11.9619C22.5154 11.5682 21.6897 11.3499 20.8461 11.3244H20.48C19.5505 11.3781 18.6397 11.6026 17.7953 11.9861C17.3879 12.1721 16.9539 12.2964 16.5083 12.3549C16.0355 12.2917 15.5775 12.1485 15.1549 11.9319C14.4181 11.5991 13.6241 11.4041 12.814 11.357C11.8137 11.3747 10.8356 11.6484 9.97713 12.1508C9.1187 12.6533 8.40995 13.3669 7.9215 14.2206Z" fill="white"/>
<path d="M20.8133 5.97684C19.4767 6.09655 18.2398 6.71874 17.363 7.71238C16.9187 8.19122 16.5793 8.75386 16.3656 9.36572C16.1519 9.97757 16.0685 10.6257 16.1205 11.2702C16.1252 11.3118 16.1443 11.3505 16.1745 11.3801C16.2048 11.4096 16.2444 11.4283 16.2869 11.4329H16.531C17.1652 11.399 17.7847 11.2323 18.3474 10.9441C18.9101 10.6559 19.4029 10.2529 19.7926 9.76248C20.675 8.74818 21.1134 7.43497 21.013 6.10701C21.0003 6.06602 20.9735 6.03061 20.937 6.00686C20.9006 5.98311 20.8569 5.9725 20.8133 5.97684Z" fill="white"/>
<path d="M43.3056 11.4837V13.0964H42.9086V11.8438H37.7234L37.7153 13.0964H37.3184L37.3265 11.4837H37.6343C38.007 11.4524 38.2663 11.1496 38.4121 10.5755C38.5633 10.0014 38.6551 9.19766 38.6876 8.16425L38.7443 6.36362H42.4306V11.4837H43.3056ZM39.0683 8.19557C39.0359 9.08283 38.963 9.80831 38.8496 10.372C38.7416 10.9357 38.5552 11.3062 38.2906 11.4837H42.0174V6.72374H39.1169L39.0683 8.19557Z" fill="white"/>
<path d="M46.032 11.8751C45.6324 11.8751 45.2705 11.7864 44.9464 11.6089C44.6277 11.4315 44.3766 11.1862 44.1929 10.873C44.0093 10.5547 43.9175 10.1971 43.9175 9.80048C43.9175 9.40382 44.0093 9.04891 44.1929 8.73576C44.3766 8.41738 44.6277 8.16947 44.9464 7.99202C45.2705 7.81456 45.6324 7.72584 46.032 7.72584C46.4317 7.72584 46.7909 7.81456 47.1096 7.99202C47.4336 8.16947 47.6875 8.41738 47.8711 8.73576C48.0548 9.04891 48.1466 9.40382 48.1466 9.80048C48.1466 10.1971 48.0548 10.5547 47.8711 10.873C47.6875 11.1862 47.4336 11.4315 47.1096 11.6089C46.7909 11.7864 46.4317 11.8751 46.032 11.8751ZM46.032 11.5228C46.3561 11.5228 46.6451 11.4498 46.8989 11.3036C47.1582 11.1575 47.3607 10.9539 47.5066 10.693C47.6578 10.432 47.7334 10.1345 47.7334 9.80048C47.7334 9.46645 47.6578 9.16895 47.5066 8.90799C47.3607 8.64703 47.1582 8.44348 46.8989 8.29734C46.6451 8.1512 46.3561 8.07813 46.032 8.07813C45.708 8.07813 45.4163 8.1512 45.1571 8.29734C44.9032 8.44348 44.7007 8.64703 44.5494 8.90799C44.4036 9.16895 44.3307 9.46645 44.3307 9.80048C44.3307 10.1345 44.4036 10.432 44.5494 10.693C44.7007 10.9539 44.9032 11.1575 45.1571 11.3036C45.4163 11.4498 45.708 11.5228 46.032 11.5228Z" fill="white"/>
<path d="M51.1753 11.8751C50.7648 11.8751 50.3976 11.7864 50.0735 11.6089C49.7494 11.4315 49.4956 11.1862 49.3119 10.873C49.1283 10.5547 49.0365 10.1971 49.0365 9.80048C49.0365 9.3986 49.1283 9.04108 49.3119 8.72793C49.4956 8.40955 49.7494 8.16425 50.0735 7.99202C50.3976 7.81456 50.7648 7.72584 51.1753 7.72584C51.5156 7.72584 51.8235 7.79108 52.0989 7.92156C52.3798 8.04682 52.6066 8.2321 52.7795 8.4774L52.4797 8.68878C52.3285 8.48523 52.1394 8.33387 51.9126 8.23471C51.6911 8.13033 51.4454 8.07813 51.1753 8.07813C50.8459 8.07813 50.5488 8.1512 50.2841 8.29734C50.0249 8.43826 49.8196 8.6392 49.6684 8.90016C49.5226 9.16112 49.4497 9.46123 49.4497 9.80048C49.4497 10.1397 49.5226 10.4398 49.6684 10.7008C49.8196 10.9618 50.0249 11.1653 50.2841 11.3114C50.5488 11.4524 50.8459 11.5228 51.1753 11.5228C51.4454 11.5228 51.6911 11.4732 51.9126 11.3741C52.1394 11.2697 52.3285 11.1157 52.4797 10.9122L52.7795 11.1236C52.6066 11.3689 52.3798 11.5567 52.0989 11.6872C51.8235 11.8125 51.5156 11.8751 51.1753 11.8751Z" fill="white"/>
<path d="M56.7082 8.10945H55.0554V11.8438H54.6503V8.10945H52.9976V7.75715H56.7082V8.10945Z" fill="white"/>
<path d="M61.0267 7.75715L58.8554 12.3997C58.6934 12.7598 58.5043 13.0155 58.2883 13.1669C58.0776 13.3182 57.8265 13.3939 57.5348 13.3939C57.3404 13.3939 57.1567 13.3626 56.9839 13.3C56.8165 13.2373 56.6733 13.146 56.5545 13.026L56.757 12.7285C56.9731 12.9425 57.2351 13.0494 57.5429 13.0494C57.7482 13.0494 57.9237 12.9946 58.0695 12.885C58.2154 12.7754 58.3504 12.5875 58.4746 12.3214L58.7015 11.8281L56.7976 7.75715H57.2269L58.9202 11.4132L60.6135 7.75715H61.0267Z" fill="white"/>
<path d="M65.7006 7.75715V11.8438H65.2955V8.10945H62.4112V11.8438H62.0062V7.75715H65.7006Z" fill="white"/>
<path d="M67.4495 7.75715H67.8546V9.62041H70.7226V7.75715H71.1277V11.8438H70.7226V9.96488H67.8546V11.8438H67.4495V7.75715Z" fill="white"/>
<path d="M74.5622 11.8751C74.1625 11.8751 73.8007 11.7864 73.4766 11.6089C73.1579 11.4315 72.9068 11.1862 72.7231 10.873C72.5395 10.5547 72.4477 10.1971 72.4477 9.80048C72.4477 9.40382 72.5395 9.04891 72.7231 8.73576C72.9068 8.41738 73.1579 8.16947 73.4766 7.99202C73.8007 7.81456 74.1625 7.72584 74.5622 7.72584C74.9619 7.72584 75.3211 7.81456 75.6398 7.99202C75.9638 8.16947 76.2177 8.41738 76.4013 8.73576C76.585 9.04891 76.6768 9.40382 76.6768 9.80048C76.6768 10.1971 76.585 10.5547 76.4013 10.873C76.2177 11.1862 75.9638 11.4315 75.6398 11.6089C75.3211 11.7864 74.9619 11.8751 74.5622 11.8751ZM74.5622 11.5228C74.8863 11.5228 75.1753 11.4498 75.4291 11.3036C75.6884 11.1575 75.8909 10.9539 76.0367 10.693C76.188 10.432 76.2636 10.1345 76.2636 9.80048C76.2636 9.46645 76.188 9.16895 76.0367 8.90799C75.8909 8.64703 75.6884 8.44348 75.4291 8.29734C75.1753 8.1512 74.8863 8.07813 74.5622 8.07813C74.2382 8.07813 73.9465 8.1512 73.6872 8.29734C73.4334 8.44348 73.2308 8.64703 73.0796 8.90799C72.9338 9.16895 72.8609 9.46645 72.8609 9.80048C72.8609 10.1345 72.9338 10.432 73.0796 10.693C73.2308 10.9539 73.4334 11.1575 73.6872 11.3036C73.9465 11.4498 74.2382 11.5228 74.5622 11.5228Z" fill="white"/>
<path d="M80.0769 7.75715H80.4819V9.62041H83.35V7.75715H83.7551V11.8438H83.35V9.96488H80.4819V11.8438H80.0769V7.75715Z" fill="white"/>
<path d="M86.906 7.72584C87.4299 7.72584 87.8323 7.85632 88.1132 8.11728C88.394 8.37302 88.5344 8.75141 88.5344 9.25246V11.8438H88.1456V11.1157C88.0105 11.3558 87.8134 11.5437 87.5541 11.6794C87.2949 11.8099 86.9843 11.8751 86.6224 11.8751C86.1525 11.8751 85.7799 11.7681 85.5044 11.5541C85.2343 11.3401 85.0993 11.0583 85.0993 10.7086C85.0993 10.3694 85.2235 10.0954 85.472 9.8866C85.7258 9.67261 86.1282 9.56561 86.6791 9.56561H88.1294V9.2368C88.1294 8.8558 88.0213 8.56613 87.8053 8.3678C87.5946 8.16947 87.2841 8.0703 86.8736 8.0703C86.5927 8.0703 86.3227 8.11728 86.0634 8.21122C85.8096 8.30517 85.5935 8.43043 85.4153 8.58701L85.2127 8.30517C85.4234 8.1225 85.6772 7.98158 85.9743 7.88241C86.2714 7.77803 86.5819 7.72584 86.906 7.72584ZM86.6791 11.5541C87.0302 11.5541 87.3273 11.4758 87.5703 11.3193C87.8188 11.1627 88.0051 10.9357 88.1294 10.6382V9.87094H86.6872C86.2714 9.87094 85.9689 9.94401 85.7799 10.0901C85.5962 10.2363 85.5044 10.4372 85.5044 10.693C85.5044 10.9591 85.607 11.1705 85.8123 11.3271C86.0175 11.4785 86.3065 11.5541 86.6791 11.5541Z" fill="white"/>
<path d="M43.7053 23.4358H39.5813L38.655 25.9184H37.3164L41.0754 16.4063H42.2112L45.9769 25.9184H44.6451L43.7053 23.4358ZM39.9734 22.4036H43.32L41.6433 17.9546L39.9734 22.4036Z" fill="white"/>
<path d="M53.2853 22.4624C53.2853 23.5382 53.0306 24.4049 52.5213 25.0625C52.012 25.7202 51.3224 26.049 50.4525 26.049C49.5646 26.049 48.866 25.7768 48.3567 25.2324V28.6361H47.106V18.8496H48.2485L48.3094 19.6336C48.8187 19.0239 49.5263 18.719 50.4323 18.719C51.3112 18.719 52.0053 19.0391 52.5146 19.6793C53.0284 20.3196 53.2853 21.2102 53.2853 22.3513V22.4624ZM52.0346 22.3252C52.0346 21.5282 51.8588 20.8988 51.5072 20.4372C51.1557 19.9755 50.6734 19.7447 50.0604 19.7447C49.3032 19.7447 48.7353 20.0691 48.3567 20.7181V24.0957C48.7308 24.7402 49.3032 25.0625 50.0739 25.0625C50.6734 25.0625 51.1489 24.8339 51.5005 24.3766C51.8565 23.9149 52.0346 23.2311 52.0346 22.3252Z" fill="white"/>
<path d="M61.0602 22.4624C61.0602 23.5382 60.8055 24.4049 60.2962 25.0625C59.7869 25.7202 59.0973 26.049 58.2274 26.049C57.3395 26.049 56.6409 25.7768 56.1316 25.2324V28.6361H54.8808V18.8496H56.0234L56.0843 19.6336C56.5936 19.0239 57.3012 18.719 58.2071 18.719C59.086 18.719 59.7801 19.0391 60.2894 19.6793C60.8033 20.3196 61.0602 21.2102 61.0602 22.3513V22.4624ZM59.8094 22.3252C59.8094 21.5282 59.6336 20.8988 59.2821 20.4372C58.9305 19.9755 58.4483 19.7447 57.8353 19.7447C57.0781 19.7447 56.5102 20.0691 56.1316 20.7181V24.0957C56.5057 24.7402 57.0781 25.0625 57.8488 25.0625C58.4483 25.0625 58.9238 24.8339 59.2753 24.3766C59.6314 23.9149 59.8094 23.2311 59.8094 22.3252Z" fill="white"/>
<path d="M69.1866 21.6784C68.0733 21.3692 67.262 20.9903 66.7527 20.5417C66.2479 20.0887 65.9955 19.5313 65.9955 18.8692C65.9955 18.1201 66.3043 17.5017 66.9217 17.0139C67.5437 16.5217 68.3505 16.2756 69.3421 16.2756C70.0182 16.2756 70.6199 16.4019 71.1472 16.6545C71.6791 16.9072 72.0892 17.2556 72.3777 17.6998C72.6706 18.1441 72.8171 18.6297 72.8171 19.1567H71.5123C71.5123 18.5818 71.323 18.131 70.9444 17.8044C70.5658 17.4734 70.0317 17.3079 69.3421 17.3079C68.7021 17.3079 68.2018 17.445 67.8412 17.7194C67.4851 17.9895 67.3071 18.3662 67.3071 18.8496C67.3071 19.2373 67.4761 19.5661 67.8142 19.8361C68.1567 20.1018 68.7359 20.3457 69.5517 20.5678C70.372 20.7899 71.012 21.036 71.4717 21.3061C71.936 21.5717 72.2785 21.8831 72.4994 22.2403C72.7247 22.5974 72.8374 23.0177 72.8374 23.5012C72.8374 24.272 72.5264 24.8905 71.9044 25.3565C71.2824 25.8182 70.4508 26.049 69.4097 26.049C68.7336 26.049 68.1026 25.9249 67.5167 25.6766C66.9308 25.424 66.4778 25.08 66.1578 24.6444C65.8423 24.2089 65.6845 23.7146 65.6845 23.1614H66.9893C66.9893 23.7363 67.2079 24.1915 67.6451 24.5268C68.0868 24.8578 68.675 25.0233 69.4097 25.0233C70.0948 25.0233 70.6199 24.8883 70.9849 24.6183C71.35 24.3483 71.5326 23.9802 71.5326 23.5142C71.5326 23.0482 71.3635 22.6889 71.0255 22.4363C70.6875 22.1793 70.0745 21.9267 69.1866 21.6784Z" fill="white"/>
<path d="M76.0082 17.138V18.8496H77.3739V19.7839H76.0082V24.1675C76.0082 24.4506 76.069 24.664 76.1907 24.8078C76.3124 24.9471 76.5198 25.0168 76.8127 25.0168C76.9569 25.0168 77.1553 24.9907 77.4077 24.9384V25.9184C77.0786 26.0055 76.7586 26.049 76.4476 26.049C75.8888 26.049 75.4673 25.8857 75.1834 25.5591C74.8994 25.2324 74.7575 24.7686 74.7575 24.1675V19.7839H73.4256V18.8496H74.7575V17.138H76.0082Z" fill="white"/>
<path d="M78.3745 22.3187C78.3745 21.6262 78.5142 21.0034 78.7936 20.4502C79.0776 19.8971 79.4697 19.4703 79.97 19.1698C80.4748 18.8692 81.0495 18.719 81.694 18.719C82.6901 18.719 83.4946 19.0522 84.1076 19.7185C84.7251 20.3849 85.0338 21.2712 85.0338 22.3775V22.4624C85.0338 23.1505 84.8963 23.769 84.6214 24.3178C84.351 24.8622 83.9611 25.2868 83.4518 25.5917C82.947 25.8966 82.3656 26.049 81.7075 26.049C80.7159 26.049 79.9114 25.7158 79.2939 25.0495C78.6809 24.3831 78.3745 23.5012 78.3745 22.4036V22.3187ZM79.632 22.4624C79.632 23.2464 79.819 23.8757 80.1931 24.3504C80.5717 24.8252 81.0765 25.0625 81.7075 25.0625C82.343 25.0625 82.8478 24.823 83.2219 24.3439C83.596 23.8605 83.7831 23.1854 83.7831 22.3187C83.7831 21.5434 83.5915 20.9163 83.2084 20.4372C82.8298 19.9537 82.325 19.712 81.694 19.712C81.0765 19.712 80.5785 19.9494 80.1999 20.4241C79.8213 20.8988 79.632 21.5783 79.632 22.4624Z" fill="white"/>
<path d="M90.1382 19.9341C89.9489 19.9036 89.7438 19.8884 89.5229 19.8884C88.7026 19.8884 88.146 20.2259 87.853 20.901V25.9184H86.6023V18.8496H87.8192L87.8395 19.6663C88.2497 19.0347 88.8311 18.719 89.5838 18.719C89.8272 18.719 90.012 18.7495 90.1382 18.8104V19.9341Z" fill="white"/>
<path d="M94.1946 26.049C93.203 26.049 92.3963 25.7354 91.7743 25.1083C91.1523 24.4767 90.8413 23.634 90.8413 22.58V22.3579C90.8413 21.6567 90.9787 21.0317 91.2537 20.4829C91.5331 19.9298 91.9207 19.4986 92.4165 19.1894C92.9168 18.8758 93.4577 18.719 94.0391 18.719C94.9901 18.719 95.7293 19.0217 96.2566 19.6271C96.784 20.2325 97.0476 21.0992 97.0476 22.2272V22.7303H92.092C92.11 23.4271 92.3196 23.9911 92.7208 24.4223C93.1264 24.8491 93.6402 25.0625 94.2622 25.0625C94.7039 25.0625 95.078 24.9754 95.3845 24.8012C95.691 24.627 95.9592 24.3962 96.189 24.1087L96.953 24.6836C96.34 25.5939 95.4206 26.049 94.1946 26.049ZM94.0391 19.712C93.5343 19.712 93.1106 19.8906 92.7681 20.2477C92.4255 20.6005 92.2137 21.097 92.1326 21.7372H95.7969V21.6458C95.7609 21.0317 95.5896 20.5569 95.2831 20.2216C94.9766 19.8819 94.5619 19.712 94.0391 19.712Z" fill="white"/>
</svg>
