<svg width="366" height="366" viewBox="0 0 366 366" fill="none" xmlns="http://www.w3.org/2000/svg">
<g clip-path="url(#clip0)">
<path d="M312.401 53.5993C277.837 19.0355 231.88 0 183 0C134.117 0 88.1631 19.0355 53.5993 53.5993C19.0355 88.1631 0 134.117 0 183C0 231.88 19.0355 277.837 53.5993 312.401C88.1631 346.964 134.117 366 183 366C231.88 366 277.837 346.964 312.401 312.401C346.964 277.837 366 231.88 366 183C366 134.117 346.964 88.1631 312.401 53.5993ZM91.7429 316.237C99.3968 272.168 137.585 239.663 183 239.663C228.418 239.663 266.603 272.168 274.257 316.237C248.274 334.089 216.838 344.555 183 344.555C149.162 344.555 117.726 334.089 91.7429 316.237ZM124.813 160.03C124.813 127.943 150.916 101.843 183 101.843C215.084 101.843 241.187 127.946 241.187 160.03C241.187 192.114 215.084 218.217 183 218.217C150.916 218.217 124.813 192.114 124.813 160.03ZM292.832 301.362C287.06 280.847 275.597 262.233 259.53 247.693C249.673 238.772 238.453 231.732 226.39 226.77C248.193 212.549 262.635 187.945 262.635 160.03C262.635 116.12 226.91 80.3976 183 80.3976C139.09 80.3976 103.368 116.12 103.368 160.03C103.368 187.945 117.81 212.549 139.61 226.77C127.549 231.732 116.327 238.769 106.47 247.691C90.4054 262.23 78.94 280.844 73.1682 301.36C41.3772 271.836 21.4453 229.705 21.4453 183C21.4453 93.9182 93.9182 21.4453 183 21.4453C272.082 21.4453 344.555 93.9182 344.555 183C344.555 229.708 324.623 271.839 292.832 301.362Z" fill="#979797"/>
</g>
<defs>
<clipPath id="clip0">
<rect width="366" height="366" fill="white"/>
</clipPath>
</defs>
</svg>
