<svg width="16" height="16" viewBox="0 0 16 16" fill="none" xmlns="http://www.w3.org/2000/svg">
<path d="M13.5 7.50012H3.52525L7.34475 3.86212C7.54475 3.67162 7.5525 3.35512 7.362 3.15512C7.17175 2.95537 6.85525 2.94737 6.655 3.13787L2.293 7.29287C2.10425 7.48187 2 7.73287 2 8.00012C2 8.26712 2.10425 8.51837 2.30175 8.71562L6.65525 12.8621C6.752 12.9544 6.876 13.0001 7 13.0001C7.132 13.0001 7.264 12.9481 7.36225 12.8449C7.55275 12.6449 7.545 12.3286 7.345 12.1381L3.5095 8.50012H13.5C13.776 8.50012 14 8.27612 14 8.00012C14 7.72412 13.776 7.50012 13.5 7.50012Z" fill="black"/>
</svg>
