<svg width="139" height="138" viewBox="0 0 139 138" fill="none" xmlns="http://www.w3.org/2000/svg">
<g clip-path="url(#clip0)">
<path d="M121.903 31.6228H101.952V29.5731C101.952 20.4158 94.5202 12.9839 85.363 12.9839H53.6334C44.4724 12.9839 37.0442 20.4158 37.0442 29.5731V31.6228H17.0892C7.92827 31.6228 0.5 39.051 0.5 48.212V108.427C0.5 117.584 7.92827 125.016 17.0892 125.016H121.911C131.072 125.016 138.5 117.584 138.5 108.427V48.212C138.493 39.0474 131.064 31.6228 121.903 31.6228ZM69.4926 107.808C52.2104 107.808 38.1575 93.7548 38.1575 76.4726C38.1575 59.194 52.2104 45.1374 69.4926 45.1374C86.7749 45.1374 100.828 59.1903 100.828 76.4726C100.828 93.7548 86.7712 107.808 69.4926 107.808ZM86.0818 76.4726C86.0818 85.6114 78.6351 93.0618 69.4926 93.0618C60.3501 93.0618 52.9034 85.6114 52.9034 76.4726C52.9034 67.3301 60.3501 59.8834 69.4926 59.8834C78.6351 59.8834 86.0818 67.3301 86.0818 76.4726Z" fill="white"/>
</g>
<defs>
<clipPath id="clip0">
<rect width="138" height="138" fill="white" transform="translate(0.5)"/>
</clipPath>
</defs>
</svg>
