<svg width="36" height="36" viewBox="0 0 36 36" fill="none" xmlns="http://www.w3.org/2000/svg">
<rect width="36" height="36" rx="6" fill="white"/>
<g clip-path="url(#clip0)">
<path d="M24.788 9.51477L17.9999 16.3029L11.2116 9.51461C10.7433 9.04633 9.98297 9.04633 9.51453 9.51477C9.04624 9.98306 9.04624 10.7434 9.51453 11.2117L16.3028 18L9.51453 24.7883C9.04624 25.2566 9.04624 26.0169 9.51453 26.4852C9.98297 26.9537 10.7433 26.9537 11.2116 26.4854L17.9999 19.6971L24.788 26.4852C25.2565 26.9537 26.0169 26.9537 26.4851 26.4854C26.9536 26.0169 26.9536 25.2566 26.4851 24.7881L19.697 18L26.4851 11.2119C26.9536 10.7434 26.9536 9.98306 26.4851 9.51461C26.0169 9.04633 25.2565 9.04633 24.788 9.51477Z" fill="#121213"/>
</g>
<defs>
<clipPath id="clip0">
<rect width="24" height="24" fill="white" transform="translate(6 6)"/>
</clipPath>
</defs>
</svg>
