<svg width="18" height="18" viewBox="0 0 18 18" fill="none" xmlns="http://www.w3.org/2000/svg">
<path d="M15.788 0.515015L8.99991 7.30314L2.21164 0.514859C1.74335 0.0465731 0.982968 0.0465732 0.514527 0.515014C0.046241 0.9833 0.0462409 1.74368 0.514527 2.21197L7.3028 9.00024L0.514527 15.7885C0.0462409 16.2568 0.046241 17.0172 0.514527 17.4855C0.982968 17.9539 1.74335 17.9539 2.21164 17.4856L8.99991 10.6974L15.788 17.4855C16.2565 17.9539 17.0169 17.9539 17.4851 17.4856C17.9536 17.0172 17.9536 16.2568 17.4851 15.7884L10.697 9.00024L17.4851 2.21212C17.9536 1.74368 17.9536 0.9833 17.4851 0.514859C17.0169 0.0465732 16.2565 0.0465739 15.788 0.515015Z" fill="#354455"/>
</svg>
