<svg width="24" height="24" viewBox="0 0 24 24" fill="#FFFFFF" xmlns="http://www.w3.org/2000/svg">
    <path fill-rule="evenodd" clip-rule="evenodd"
          d="M12 5.56398C14.1943 5.56398 16.2926 6.71492 18.248 8.60593C18.9151 9.25105 19.5186 9.9398 20.0499 10.6288C20.3705 11.0446 20.5981 11.3717 20.7228 11.5665L21 12L20.7228 12.4335C20.5981 12.6283 20.3705 12.9554 20.0499 13.3712C19.5186 14.0602 18.9151 14.7489 18.248 15.3941C16.2926 17.2851 14.1943 18.436 12 18.436C9.80568 18.436 7.70743 17.2851 5.752 15.3941C5.08489 14.7489 4.48136 14.0602 3.95007 13.3712C3.62948 12.9554 3.40186 12.6283 3.27723 12.4335L3 12L3.27723 11.5665C3.40186 11.3717 3.62948 11.0446 3.95007 10.6288C4.48136 9.9398 5.08489 9.25105 5.752 8.60593C7.70743 6.71492 9.80568 5.56398 12 5.56398ZM18.7755 11.6115C18.2891 10.9806 17.7361 10.3495 17.1293 9.76273C15.4451 8.13403 13.6934 7.17315 11.9998 7.17315C10.3063 7.17315 8.55454 8.13403 6.87035 9.76273C6.26359 10.3495 5.71054 10.9806 5.2241 11.6115C5.11904 11.7477 5.02196 11.8777 4.93321 12.0002C5.02196 12.1226 5.11904 12.2526 5.2241 12.3888C5.71054 13.0197 6.26359 13.6508 6.87035 14.2376C8.55454 15.8663 10.3063 16.8272 11.9998 16.8272C13.6934 16.8272 15.4451 15.8663 17.1293 14.2376C17.7361 13.6508 18.2891 13.0197 18.7755 12.3888C18.8806 12.2526 18.9777 12.1226 19.0664 12.0002C18.9777 11.8777 18.8806 11.7477 18.7755 11.6115ZM8.78191 12.0019C8.78191 13.7791 10.2227 15.2199 11.9999 15.2199C13.7772 15.2199 15.2179 13.7791 15.2179 12.0019C15.2179 10.2246 13.7772 8.78388 11.9999 8.78388C10.2227 8.78388 8.78191 10.2246 8.78191 12.0019ZM13.6083 12.4373C13.6083 13.3259 12.8879 14.0463 11.9993 14.0463C11.1107 14.0463 10.3903 13.3259 10.3903 12.4373C10.3903 11.5487 11.1107 10.8283 11.9993 10.8283C12.8879 10.8283 13.6083 11.5487 13.6083 12.4373Z"
          fill="#FFFFFF"/>
</svg>
