<svg width="16" height="17" viewBox="0 0 16 17" fill="none" xmlns="http://www.w3.org/2000/svg">
<path d="M8.00065 1.83334C5.42747 1.83334 3.33398 3.91244 3.33398 6.46794C3.33398 9.67993 8.00524 15.1667 8.00524 15.1667C8.00524 15.1667 12.6673 9.52198 12.6673 6.46794C12.6673 3.91244 10.5739 1.83334 8.00065 1.83334ZM9.40868 7.82495C9.02043 8.21045 8.51058 8.40324 8.00065 8.40324C7.4908 8.40324 6.98079 8.21045 6.5927 7.82495C5.81629 7.05396 5.81629 5.7994 6.5927 5.02832C6.96866 4.65479 7.46876 4.44906 8.00065 4.44906C8.53255 4.44906 9.03256 4.65487 9.40868 5.02832C10.1851 5.7994 10.1851 7.05396 9.40868 7.82495Z" fill="#BFBFBF"/>
</svg>
