<svg width="121" height="35" viewBox="0 0 121 35" fill="none" xmlns="http://www.w3.org/2000/svg">
<rect x="0.5" width="120" height="35" rx="5" fill="#E56366"/>
<path d="M44.0297 11.5001V13.1179H43.6338V11.8614H38.4626L38.4545 13.1179H38.0586L38.0667 11.5001H38.3737C38.7454 11.4687 39.004 11.165 39.1494 10.5891C39.3002 10.0132 39.3918 9.20693 39.4241 8.17029L39.4807 6.36401H43.1571V11.5001H44.0297ZM39.8039 8.2017C39.7716 9.09175 39.6988 9.81949 39.5857 10.3849C39.478 10.9504 39.2921 11.3221 39.0282 11.5001H42.745V6.72527H39.8524L39.8039 8.2017Z" fill="white"/>
<path d="M46.7489 11.8928C46.3503 11.8928 45.9894 11.8038 45.6662 11.6258C45.3484 11.4478 45.0979 11.2017 44.9148 10.8875C44.7316 10.5682 44.64 10.2095 44.64 9.81164C44.64 9.41373 44.7316 9.05772 44.9148 8.74358C45.0979 8.42421 45.3484 8.17552 45.6662 7.99751C45.9894 7.8195 46.3503 7.7305 46.7489 7.7305C47.1475 7.7305 47.5058 7.8195 47.8236 7.99751C48.1468 8.17552 48.3999 8.42421 48.5831 8.74358C48.7662 9.05772 48.8578 9.41373 48.8578 9.81164C48.8578 10.2095 48.7662 10.5682 48.5831 10.8875C48.3999 11.2017 48.1468 11.4478 47.8236 11.6258C47.5058 11.8038 47.1475 11.8928 46.7489 11.8928ZM46.7489 11.5394C47.0721 11.5394 47.3603 11.4661 47.6135 11.3195C47.8721 11.1729 48.0741 10.9687 48.2195 10.7069C48.3703 10.4451 48.4457 10.1467 48.4457 9.81164C48.4457 9.47656 48.3703 9.17813 48.2195 8.91636C48.0741 8.65458 47.8721 8.45039 47.6135 8.30379C47.3603 8.1572 47.0721 8.0839 46.7489 8.0839C46.4257 8.0839 46.1348 8.1572 45.8763 8.30379C45.6231 8.45039 45.4211 8.65458 45.2703 8.91636C45.1248 9.17813 45.0521 9.47656 45.0521 9.81164C45.0521 10.1467 45.1248 10.4451 45.2703 10.7069C45.4211 10.9687 45.6231 11.1729 45.8763 11.3195C46.1348 11.4661 46.4257 11.5394 46.7489 11.5394Z" fill="white"/>
<path d="M51.8784 11.8928C51.469 11.8928 51.1027 11.8038 50.7795 11.6258C50.4563 11.4478 50.2032 11.2017 50.02 10.8875C49.8369 10.5682 49.7453 10.2095 49.7453 9.81164C49.7453 9.4085 49.8369 9.04986 50.02 8.73573C50.2032 8.41636 50.4563 8.17029 50.7795 7.99751C51.1027 7.8195 51.469 7.7305 51.8784 7.7305C52.2178 7.7305 52.5248 7.79594 52.7995 7.92683C53.0797 8.05249 53.3059 8.23835 53.4783 8.48442L53.1793 8.69646C53.0285 8.49227 52.8399 8.34044 52.6137 8.24097C52.3929 8.13625 52.1478 8.0839 51.8784 8.0839C51.5498 8.0839 51.2536 8.1572 50.9896 8.30379C50.7311 8.44515 50.5264 8.64672 50.3755 8.9085C50.2301 9.17028 50.1574 9.47133 50.1574 9.81164C50.1574 10.152 50.2301 10.453 50.3755 10.7148C50.5264 10.9766 50.7311 11.1807 50.9896 11.3273C51.2536 11.4687 51.5498 11.5394 51.8784 11.5394C52.1478 11.5394 52.3929 11.4896 52.6137 11.3902C52.8399 11.2855 53.0285 11.131 53.1793 10.9268L53.4783 11.1389C53.3059 11.3849 53.0797 11.5734 52.7995 11.7043C52.5248 11.83 52.2178 11.8928 51.8784 11.8928Z" fill="white"/>
<path d="M57.3965 8.11531H55.7481V11.8614H55.3441V8.11531H53.6958V7.76191H57.3965V8.11531Z" fill="white"/>
<path d="M61.7034 7.76191L59.5379 12.419C59.3763 12.7802 59.1878 13.0368 58.9723 13.1886C58.7622 13.3404 58.5118 13.4163 58.2209 13.4163C58.027 13.4163 57.8438 13.3849 57.6714 13.3221C57.5044 13.2593 57.3617 13.1676 57.2432 13.0472L57.4452 12.7488C57.6607 12.9635 57.9219 13.0708 58.229 13.0708C58.4336 13.0708 58.6087 13.0158 58.7542 12.9059C58.8996 12.7959 59.0343 12.6074 59.1582 12.3404L59.3844 11.8457L57.4856 7.76191H57.9138L59.6026 11.4294L61.2913 7.76191H61.7034Z" fill="white"/>
<path d="M66.3647 7.76191V11.8614H65.9607V8.11531H63.0842V11.8614H62.6802V7.76191H66.3647Z" fill="white"/>
<path d="M68.109 7.76191H68.513V9.63101H71.3733V7.76191H71.7773V11.8614H71.3733V9.97656H68.513V11.8614H68.109V7.76191Z" fill="white"/>
<path d="M75.2027 11.8928C74.804 11.8928 74.4431 11.8038 74.1199 11.6258C73.8021 11.4478 73.5516 11.2017 73.3685 10.8875C73.1853 10.5682 73.0938 10.2095 73.0938 9.81164C73.0938 9.41373 73.1853 9.05772 73.3685 8.74358C73.5516 8.42421 73.8021 8.17552 74.1199 7.99751C74.4431 7.8195 74.804 7.7305 75.2027 7.7305C75.6013 7.7305 75.9595 7.8195 76.2773 7.99751C76.6005 8.17552 76.8537 8.42421 77.0368 8.74358C77.22 9.05772 77.3115 9.41373 77.3115 9.81164C77.3115 10.2095 77.22 10.5682 77.0368 10.8875C76.8537 11.2017 76.6005 11.4478 76.2773 11.6258C75.9595 11.8038 75.6013 11.8928 75.2027 11.8928ZM75.2027 11.5394C75.5259 11.5394 75.814 11.4661 76.0672 11.3195C76.3258 11.1729 76.5278 10.9687 76.6732 10.7069C76.824 10.4451 76.8995 10.1467 76.8995 9.81164C76.8995 9.47656 76.824 9.17813 76.6732 8.91636C76.5278 8.65458 76.3258 8.45039 76.0672 8.30379C75.814 8.1572 75.5259 8.0839 75.2027 8.0839C74.8794 8.0839 74.5886 8.1572 74.33 8.30379C74.0768 8.45039 73.8748 8.65458 73.724 8.91636C73.5786 9.17813 73.5058 9.47656 73.5058 9.81164C73.5058 10.1467 73.5786 10.4451 73.724 10.7069C73.8748 10.9687 74.0768 11.1729 74.33 11.3195C74.5886 11.4661 74.8794 11.5394 75.2027 11.5394Z" fill="white"/>
<path d="M80.7025 7.76191H81.1065V9.63101H83.9668V7.76191H84.3708V11.8614H83.9668V9.97656H81.1065V11.8614H80.7025V7.76191Z" fill="white"/>
<path d="M87.5133 7.7305C88.0359 7.7305 88.4372 7.86139 88.7173 8.12317C88.9974 8.37971 89.1374 8.75929 89.1374 9.2619V11.8614H88.7496V11.131C88.6149 11.3718 88.4183 11.5603 88.1597 11.6964C87.9012 11.8273 87.5915 11.8928 87.2305 11.8928C86.7619 11.8928 86.3902 11.7854 86.1155 11.5708C85.8462 11.3561 85.7115 11.0734 85.7115 10.7226C85.7115 10.3823 85.8354 10.1074 86.0832 9.89803C86.3364 9.68337 86.7377 9.57604 87.2871 9.57604H88.7334V9.2462C88.7334 8.864 88.6257 8.57343 88.4102 8.37447C88.2001 8.17552 87.8904 8.07605 87.481 8.07605C87.2009 8.07605 86.9316 8.12317 86.673 8.21741C86.4198 8.31165 86.2044 8.4373 86.0266 8.59437L85.8246 8.31165C86.0347 8.1284 86.2879 7.98704 86.5841 7.88757C86.8804 7.78285 87.1901 7.7305 87.5133 7.7305ZM87.2871 11.5708C87.6372 11.5708 87.9335 11.4923 88.1759 11.3352C88.4237 11.1781 88.6095 10.9504 88.7334 10.6519V9.88232H87.2952C86.8804 9.88232 86.5788 9.95562 86.3902 10.1022C86.2071 10.2488 86.1155 10.4504 86.1155 10.7069C86.1155 10.9739 86.2178 11.186 86.4225 11.343C86.6272 11.4949 86.9154 11.5708 87.2871 11.5708Z" fill="white"/>
<path d="M45.4485 25.412C45.1235 25.8644 44.6691 26.2037 44.0851 26.4299C43.5055 26.6518 42.8293 26.7628 42.0565 26.7628C41.2749 26.7628 40.5812 26.5857 39.9752 26.2314C39.3693 25.8729 38.8994 25.3651 38.5657 24.7079C38.2364 24.0506 38.0674 23.2889 38.0586 22.4225V21.6095C38.0586 20.2054 38.3945 19.1172 39.0663 18.3447C39.7425 17.5723 40.6909 17.186 41.9116 17.186C42.9127 17.186 43.7184 17.4357 44.3288 17.935C44.9391 18.4301 45.3123 19.1342 45.4485 20.0475H44.1839C43.9468 18.8142 43.1915 18.1975 41.9182 18.1975C41.0707 18.1975 40.4275 18.4877 39.9884 19.0681C39.5537 19.6442 39.3341 20.4807 39.3298 21.5775V22.3393C39.3298 23.3849 39.5756 24.2171 40.0674 24.8359C40.5592 25.4504 41.2244 25.7577 42.0631 25.7577C42.5373 25.7577 42.9522 25.7065 43.3079 25.6041C43.6636 25.5017 43.9577 25.3288 44.1905 25.0856V22.9922H41.9709V21.9936H45.4485V25.412Z" fill="white"/>
<path d="M47.0489 23.1075C47.0489 22.4289 47.185 21.8186 47.4573 21.2766C47.7339 20.7346 48.1159 20.3164 48.6033 20.0219C49.0951 19.7275 49.6549 19.5802 50.2828 19.5802C51.2532 19.5802 52.037 19.9067 52.6341 20.5597C53.2357 21.2126 53.5365 22.0811 53.5365 23.1651V23.2483C53.5365 23.9226 53.4025 24.5286 53.1347 25.0663C52.8712 25.5998 52.4914 26.0159 51.9953 26.3147C51.5035 26.6134 50.9371 26.7628 50.296 26.7628C49.33 26.7628 48.5462 26.4363 47.9447 25.7833C47.3475 25.1304 47.0489 24.2662 47.0489 23.1907V23.1075ZM48.274 23.2483C48.274 24.0165 48.4562 24.6332 48.8207 25.0984C49.1895 25.5635 49.6813 25.7961 50.296 25.7961C50.9151 25.7961 51.4069 25.5614 51.7713 25.092C52.1358 24.6182 52.318 23.9567 52.318 23.1075C52.318 22.3478 52.1314 21.7333 51.7582 21.2638C51.3893 20.7901 50.8975 20.5533 50.2828 20.5533C49.6813 20.5533 49.1961 20.7858 48.8272 21.251C48.4584 21.7162 48.274 22.382 48.274 23.2483Z" fill="white"/>
<path d="M54.7418 23.1075C54.7418 22.4289 54.8779 21.8186 55.1501 21.2766C55.4267 20.7346 55.8088 20.3164 56.2961 20.0219C56.7879 19.7275 57.3478 19.5802 57.9757 19.5802C58.946 19.5802 59.7298 19.9067 60.327 20.5597C60.9285 21.2126 61.2293 22.0811 61.2293 23.1651V23.2483C61.2293 23.9226 61.0954 24.5286 60.8275 25.0663C60.5641 25.5998 60.1843 26.0159 59.6881 26.3147C59.1963 26.6134 58.6299 26.7628 57.9888 26.7628C57.0228 26.7628 56.2391 26.4363 55.6375 25.7833C55.0403 25.1304 54.7418 24.2662 54.7418 23.1907V23.1075ZM55.9668 23.2483C55.9668 24.0165 56.149 24.6332 56.5135 25.0984C56.8823 25.5635 57.3741 25.7961 57.9888 25.7961C58.6079 25.7961 59.0997 25.5614 59.4642 25.092C59.8286 24.6182 60.0108 23.9567 60.0108 23.1075C60.0108 22.3478 59.8242 21.7333 59.451 21.2638C59.0822 20.7901 58.5904 20.5533 57.9757 20.5533C57.3741 20.5533 56.8889 20.7858 56.5201 21.251C56.1512 21.7162 55.9668 22.382 55.9668 23.2483Z" fill="white"/>
<path d="M62.4675 23.1139C62.4675 22.0341 62.7244 21.1763 63.2381 20.5404C63.7519 19.9003 64.4324 19.5802 65.2799 19.5802C66.1493 19.5802 66.8277 19.879 67.3151 20.4764L67.3743 19.7082H68.4874V26.4683C68.4874 27.3645 68.213 28.0708 67.6641 28.5872C67.1197 29.1036 66.3864 29.3618 65.4643 29.3618C64.9506 29.3618 64.4478 29.2551 63.956 29.0417C63.4643 28.8283 63.0888 28.536 62.8298 28.1647L63.4621 27.4541C63.9846 28.0815 64.6234 28.3952 65.3787 28.3952C65.9715 28.3952 66.4325 28.233 66.7618 27.9086C67.0955 27.5843 67.2624 27.1276 67.2624 26.5387V25.9434C66.775 26.4896 66.1098 26.7628 65.2667 26.7628C64.4324 26.7628 63.7562 26.4363 63.2381 25.7833C62.7244 25.1304 62.4675 24.2405 62.4675 23.1139ZM63.6926 23.2483C63.6926 24.0293 63.8572 24.6438 64.1866 25.092C64.5159 25.5358 64.9769 25.7577 65.5697 25.7577C66.3381 25.7577 66.9023 25.4184 67.2624 24.7399V21.5775C66.8891 20.916 66.3293 20.5853 65.5829 20.5853C64.9901 20.5853 64.5268 20.8093 64.1931 21.2574C63.8594 21.7055 63.6926 22.3692 63.6926 23.2483Z" fill="white"/>
<path d="M71.6555 26.6347H70.437V16.8019H71.6555V26.6347Z" fill="white"/>
<path d="M76.5689 26.7628C75.6029 26.7628 74.8169 26.4555 74.2109 25.8409C73.605 25.2221 73.302 24.3963 73.302 23.3635V23.1459C73.302 22.4588 73.436 21.8464 73.7038 21.3086C73.976 20.7666 74.3536 20.3441 74.8366 20.0411C75.324 19.7339 75.8509 19.5802 76.4174 19.5802C77.3438 19.5802 78.0639 19.8768 78.5777 20.47C79.0914 21.0632 79.3483 21.9125 79.3483 23.0179V23.5108H74.5205C74.5381 24.1936 74.7422 24.7463 75.133 25.1688C75.5282 25.587 76.0288 25.7961 76.6347 25.7961C77.065 25.7961 77.4295 25.7108 77.728 25.5401C78.0266 25.3694 78.2879 25.1432 78.5118 24.8615L79.2561 25.4248C78.6589 26.3168 77.7632 26.7628 76.5689 26.7628ZM76.4174 20.5533C75.9256 20.5533 75.5128 20.7282 75.1791 21.0782C74.8454 21.4239 74.6391 21.9104 74.56 22.5377H78.1298V22.4481C78.0947 21.8464 77.9278 21.3812 77.6292 21.0526C77.3307 20.7197 76.9267 20.5533 76.4174 20.5533Z" fill="white"/>
<path d="M85.5658 22.9858V26.6347H84.3012V17.3141H87.8381C88.8875 17.3141 89.7086 17.5744 90.3013 18.0951C90.8985 18.6157 91.1971 19.3049 91.1971 20.1628C91.1971 21.0675 90.9051 21.7653 90.3211 22.2561C89.7415 22.7426 88.9094 22.9858 87.8249 22.9858H85.5658ZM85.5658 21.9808H87.8381C88.5143 21.9808 89.0324 21.8272 89.3924 21.5199C89.7525 21.2083 89.9325 20.7602 89.9325 20.1756C89.9325 19.6208 89.7525 19.1769 89.3924 18.844C89.0324 18.5112 88.5384 18.3383 87.9105 18.3255H85.5658V21.9808Z" fill="white"/>
<path d="M93.9436 26.6347H92.7251V16.8019H93.9436V26.6347Z" fill="white"/>
<path d="M100.299 26.6347C100.229 26.4982 100.172 26.2549 100.128 25.905C99.5617 26.4768 98.8855 26.7628 98.0996 26.7628C97.397 26.7628 96.8196 26.5707 96.3674 26.1866C95.9195 25.7983 95.6955 25.3075 95.6955 24.7143C95.6955 23.993 95.9766 23.434 96.5386 23.0371C97.105 22.6359 97.8998 22.4353 98.9228 22.4353H100.108V21.8912C100.108 21.4772 99.981 21.1486 99.7264 20.9053C99.4717 20.6578 99.0963 20.534 98.6001 20.534C98.1654 20.534 97.801 20.6407 97.5068 20.8541C97.2126 21.0675 97.0655 21.3257 97.0655 21.6287H95.8404C95.8404 21.283 95.9656 20.9501 96.2159 20.6301C96.4705 20.3057 96.813 20.0497 97.2433 19.8619C97.678 19.6741 98.1544 19.5802 98.6726 19.5802C99.4937 19.5802 100.137 19.7808 100.602 20.182C101.068 20.5789 101.309 21.1273 101.327 21.8272V25.0151C101.327 25.651 101.41 26.1567 101.577 26.5323V26.6347H100.299ZM98.2774 25.7321C98.6594 25.7321 99.0216 25.6361 99.3641 25.444C99.7066 25.252 99.9547 25.0023 100.108 24.6951V23.2739H99.1534C97.6605 23.2739 96.914 23.6985 96.914 24.5478C96.914 24.9191 97.0414 25.2093 97.296 25.4184C97.5507 25.6276 97.8778 25.7321 98.2774 25.7321Z" fill="white"/>
<path d="M105.463 24.8999L107.123 19.7082H108.427L105.562 27.7038C105.118 28.8561 104.414 29.4322 103.448 29.4322L103.217 29.413L102.763 29.3298V28.3696L103.092 28.3952C103.505 28.3952 103.825 28.3141 104.054 28.1519C104.286 27.9897 104.477 27.6931 104.627 27.2621L104.897 26.5579L102.354 19.7082H103.685L105.463 24.8999Z" fill="white"/>
<path d="M30.1597 17.0192L25.6111 14.4485L21.8613 17.9955L25.2894 21.2496L30.1597 18.4402C30.2912 18.3674 30.4007 18.2617 30.4768 18.1341C30.5529 18.0064 30.593 17.8613 30.593 17.7135C30.593 17.5657 30.5529 17.4205 30.4768 17.2929C30.4007 17.1652 30.2912 17.0595 30.1597 16.9867V17.0192Z" fill="white"/>
<path d="M24.8336 14.0147L19.8191 11.1836L8.83594 5.67328L21.2391 17.4098L24.8336 14.0147Z" fill="white"/>
<path d="M9.01367 30.1336L19.8415 24.2979L24.5121 21.662L21.2394 18.5706L9.01367 30.1336Z" fill="white"/>
<path d="M8.10422 6.15079L8.08203 29.8409L20.6295 17.9958L8.10422 6.15079Z" fill="white"/>
</svg>
