<svg width="101" height="26" viewBox="0 0 101 26" fill="none" xmlns="http://www.w3.org/2000/svg">
<path d="M36.0293 6.50011V8.1179H35.6333V6.86136H30.4621L30.454 8.1179H30.0581L30.0662 6.50011H30.3732C30.7449 6.4687 31.0035 6.16503 31.1489 5.58912C31.2997 5.01321 31.3913 4.20693 31.4236 3.17029L31.4802 1.36401H35.1566V6.50011H36.0293ZM31.8034 3.2017C31.7711 4.09175 31.6984 4.81949 31.5852 5.38493C31.4775 5.95038 31.2917 6.3221 31.0277 6.50011H34.7445V1.72527H31.8519L31.8034 3.2017Z" fill="white"/>
<path d="M38.7484 6.89278C38.3498 6.89278 37.9889 6.80377 37.6657 6.62576C37.3479 6.44775 37.0974 6.20168 36.9143 5.88755C36.7311 5.56818 36.6395 5.20954 36.6395 4.81164C36.6395 4.41373 36.7311 4.05772 36.9143 3.74358C37.0974 3.42421 37.3479 3.17552 37.6657 2.99751C37.9889 2.8195 38.3498 2.7305 38.7484 2.7305C39.1471 2.7305 39.5053 2.8195 39.8231 2.99751C40.1463 3.17552 40.3995 3.42421 40.5826 3.74358C40.7658 4.05772 40.8573 4.41373 40.8573 4.81164C40.8573 5.20954 40.7658 5.56818 40.5826 5.88755C40.3995 6.20168 40.1463 6.44775 39.8231 6.62576C39.5053 6.80377 39.1471 6.89278 38.7484 6.89278ZM38.7484 6.53938C39.0716 6.53938 39.3598 6.46608 39.613 6.31948C39.8716 6.17289 40.0736 5.9687 40.219 5.70692C40.3698 5.44514 40.4452 5.14671 40.4452 4.81164C40.4452 4.47656 40.3698 4.17813 40.219 3.91636C40.0736 3.65458 39.8716 3.45039 39.613 3.30379C39.3598 3.1572 39.0716 3.0839 38.7484 3.0839C38.4252 3.0839 38.1344 3.1572 37.8758 3.30379C37.6226 3.45039 37.4206 3.65458 37.2698 3.91636C37.1244 4.17813 37.0516 4.47656 37.0516 4.81164C37.0516 5.14671 37.1244 5.44514 37.2698 5.70692C37.4206 5.9687 37.6226 6.17289 37.8758 6.31948C38.1344 6.46608 38.4252 6.53938 38.7484 6.53938Z" fill="white"/>
<path d="M43.8779 6.89278C43.4685 6.89278 43.1023 6.80377 42.7791 6.62576C42.4558 6.44775 42.2027 6.20168 42.0195 5.88755C41.8364 5.56818 41.7448 5.20954 41.7448 4.81164C41.7448 4.4085 41.8364 4.04986 42.0195 3.73573C42.2027 3.41636 42.4558 3.17029 42.7791 2.99751C43.1023 2.8195 43.4685 2.7305 43.8779 2.7305C44.2173 2.7305 44.5243 2.79594 44.7991 2.92683C45.0792 3.05249 45.3054 3.23835 45.4778 3.48442L45.1788 3.69646C45.028 3.49227 44.8395 3.34044 44.6132 3.24097C44.3924 3.13625 44.1473 3.0839 43.8779 3.0839C43.5493 3.0839 43.2531 3.1572 42.9891 3.30379C42.7306 3.44515 42.5259 3.64672 42.375 3.9085C42.2296 4.17028 42.1569 4.47133 42.1569 4.81164C42.1569 5.15195 42.2296 5.453 42.375 5.71477C42.5259 5.97655 42.7306 6.18074 42.9891 6.32734C43.2531 6.4687 43.5493 6.53938 43.8779 6.53938C44.1473 6.53938 44.3924 6.48964 44.6132 6.39016C44.8395 6.28545 45.028 6.131 45.1788 5.92682L45.4778 6.13886C45.3054 6.38493 45.0792 6.57341 44.7991 6.7043C44.5243 6.82995 44.2173 6.89278 43.8779 6.89278Z" fill="white"/>
<path d="M49.396 3.11531H47.7476V6.86136H47.3436V3.11531H45.6953V2.76191H49.396V3.11531Z" fill="white"/>
<path d="M53.7029 2.76191L51.5374 7.41895C51.3758 7.78021 51.1873 8.03675 50.9718 8.18858C50.7617 8.34041 50.5113 8.41633 50.2204 8.41633C50.0265 8.41633 49.8433 8.38492 49.6709 8.32209C49.504 8.25926 49.3612 8.16764 49.2427 8.04722L49.4447 7.74879C49.6602 7.96345 49.9214 8.07078 50.2285 8.07078C50.4332 8.07078 50.6082 8.01581 50.7537 7.90586C50.8991 7.79591 51.0338 7.60743 51.1577 7.34042L51.3839 6.84566L49.4851 2.76191H49.9133L51.6021 6.42943L53.2908 2.76191H53.7029Z" fill="white"/>
<path d="M58.3642 2.76191V6.86136H57.9602V3.11531H55.0837V6.86136H54.6797V2.76191H58.3642Z" fill="white"/>
<path d="M60.1085 2.76191H60.5125V4.63101H63.3729V2.76191H63.7769V6.86136H63.3729V4.97656H60.5125V6.86136H60.1085V2.76191Z" fill="white"/>
<path d="M67.2022 6.89278C66.8035 6.89278 66.4426 6.80377 66.1194 6.62576C65.8016 6.44775 65.5511 6.20168 65.368 5.88755C65.1848 5.56818 65.0933 5.20954 65.0933 4.81164C65.0933 4.41373 65.1848 4.05772 65.368 3.74358C65.5511 3.42421 65.8016 3.17552 66.1194 2.99751C66.4426 2.8195 66.8035 2.7305 67.2022 2.7305C67.6008 2.7305 67.959 2.8195 68.2768 2.99751C68.6 3.17552 68.8532 3.42421 69.0363 3.74358C69.2195 4.05772 69.3111 4.41373 69.3111 4.81164C69.3111 5.20954 69.2195 5.56818 69.0363 5.88755C68.8532 6.20168 68.6 6.44775 68.2768 6.62576C67.959 6.80377 67.6008 6.89278 67.2022 6.89278ZM67.2022 6.53938C67.5254 6.53938 67.8136 6.46608 68.0667 6.31948C68.3253 6.17289 68.5273 5.9687 68.6727 5.70692C68.8236 5.44514 68.899 5.14671 68.899 4.81164C68.899 4.47656 68.8236 4.17813 68.6727 3.91636C68.5273 3.65458 68.3253 3.45039 68.0667 3.30379C67.8136 3.1572 67.5254 3.0839 67.2022 3.0839C66.879 3.0839 66.5881 3.1572 66.3295 3.30379C66.0763 3.45039 65.8743 3.65458 65.7235 3.91636C65.5781 4.17813 65.5054 4.47656 65.5054 4.81164C65.5054 5.14671 65.5781 5.44514 65.7235 5.70692C65.8743 5.9687 66.0763 6.17289 66.3295 6.31948C66.5881 6.46608 66.879 6.53938 67.2022 6.53938Z" fill="white"/>
<path d="M72.702 2.76191H73.106V4.63101H75.9664V2.76191H76.3704V6.86136H75.9664V4.97656H73.106V6.86136H72.702V2.76191Z" fill="white"/>
<path d="M79.5129 2.7305C80.0354 2.7305 80.4367 2.86139 80.7168 3.12317C80.9969 3.37971 81.1369 3.75929 81.1369 4.2619V6.86136H80.7491V6.131C80.6144 6.37184 80.4178 6.56032 80.1593 6.69644C79.9007 6.82733 79.591 6.89278 79.2301 6.89278C78.7614 6.89278 78.3897 6.78545 78.115 6.57079C77.8457 6.35613 77.711 6.07341 77.711 5.72263C77.711 5.38232 77.8349 5.10745 78.0827 4.89803C78.3359 4.68337 78.7372 4.57604 79.2866 4.57604H80.7329V4.2462C80.7329 3.864 80.6252 3.57343 80.4097 3.37447C80.1997 3.17552 79.8899 3.07605 79.4805 3.07605C79.2004 3.07605 78.9311 3.12317 78.6725 3.21741C78.4194 3.31165 78.2039 3.4373 78.0261 3.59437L77.8241 3.31165C78.0342 3.1284 78.2874 2.98704 78.5837 2.88757C78.8799 2.78285 79.1897 2.7305 79.5129 2.7305ZM79.2866 6.57079C79.6367 6.57079 79.933 6.49226 80.1754 6.33519C80.4232 6.17812 80.609 5.95038 80.7329 5.65195V4.88232H79.2947C78.8799 4.88232 78.5783 4.95562 78.3897 5.10221C78.2066 5.24881 78.115 5.45038 78.115 5.70692C78.115 5.97394 78.2174 6.18598 78.4221 6.34304C78.6267 6.49487 78.9149 6.57079 79.2866 6.57079Z" fill="white"/>
<path d="M37.448 20.412C37.123 20.8643 36.6686 21.2036 36.0846 21.4298C35.505 21.6517 34.8288 21.7627 34.056 21.7627C33.2744 21.7627 32.5807 21.5856 31.9747 21.2314C31.3688 20.8729 30.899 20.365 30.5653 19.7078C30.2359 19.0506 30.0669 18.2888 30.0581 17.4224V16.6094C30.0581 15.2054 30.394 14.1171 31.0658 13.3447C31.742 12.5722 32.6904 12.186 33.9111 12.186C34.9122 12.186 35.718 12.4356 36.3283 12.935C36.9386 13.43 37.3118 14.1342 37.448 15.0475H36.1834C35.9463 13.8141 35.1911 13.1974 33.9177 13.1974C33.0703 13.1974 32.427 13.4876 31.9879 14.068C31.5532 14.6442 31.3337 15.4806 31.3293 16.5774V17.3392C31.3293 18.3848 31.5752 19.217 32.0669 19.8358C32.5587 20.4504 33.2239 20.7577 34.0626 20.7577C34.5368 20.7577 34.9517 20.7064 35.3074 20.604C35.6631 20.5016 35.9573 20.3288 36.19 20.0855V17.9922H33.9704V16.9935H37.448V20.412Z" fill="white"/>
<path d="M39.0484 18.1074C39.0484 17.4288 39.1846 16.8186 39.4568 16.2766C39.7334 15.7346 40.1154 15.3163 40.6028 15.0219C41.0946 14.7274 41.6544 14.5802 42.2823 14.5802C43.2527 14.5802 44.0365 14.9066 44.6336 15.5596C45.2352 16.2126 45.536 17.081 45.536 18.165V18.2482C45.536 18.9225 45.4021 19.5286 45.1342 20.0663C44.8708 20.5998 44.4909 21.0159 43.9948 21.3146C43.503 21.6133 42.9366 21.7627 42.2955 21.7627C41.3295 21.7627 40.5457 21.4362 39.9442 20.7833C39.347 20.1303 39.0484 19.2661 39.0484 18.1906V18.1074ZM40.2735 18.2482C40.2735 19.0164 40.4557 19.6331 40.8202 20.0983C41.189 20.5635 41.6808 20.7961 42.2955 20.7961C42.9146 20.7961 43.4064 20.5613 43.7708 20.0919C44.1353 19.6182 44.3175 18.9567 44.3175 18.1074C44.3175 17.3478 44.1309 16.7332 43.7577 16.2638C43.3888 15.79 42.8971 15.5532 42.2823 15.5532C41.6808 15.5532 41.1956 15.7858 40.8268 16.251C40.4579 16.7161 40.2735 17.3819 40.2735 18.2482Z" fill="white"/>
<path d="M46.7413 18.1074C46.7413 17.4288 46.8774 16.8186 47.1496 16.2766C47.4263 15.7346 47.8083 15.3163 48.2956 15.0219C48.7874 14.7274 49.3473 14.5802 49.9752 14.5802C50.9455 14.5802 51.7293 14.9066 52.3265 15.5596C52.928 16.2126 53.2288 17.081 53.2288 18.165V18.2482C53.2288 18.9225 53.0949 19.5286 52.827 20.0663C52.5636 20.5998 52.1838 21.0159 51.6876 21.3146C51.1958 21.6133 50.6294 21.7627 49.9883 21.7627C49.0223 21.7627 48.2386 21.4362 47.637 20.7833C47.0399 20.1303 46.7413 19.2661 46.7413 18.1906V18.1074ZM47.9663 18.2482C47.9663 19.0164 48.1486 19.6331 48.513 20.0983C48.8818 20.5635 49.3736 20.7961 49.9883 20.7961C50.6075 20.7961 51.0992 20.5613 51.4637 20.0919C51.8281 19.6182 52.0103 18.9567 52.0103 18.1074C52.0103 17.3478 51.8237 16.7332 51.4505 16.2638C51.0817 15.79 50.5899 15.5532 49.9752 15.5532C49.3736 15.5532 48.8884 15.7858 48.5196 16.251C48.1508 16.7161 47.9663 17.3819 47.9663 18.2482Z" fill="white"/>
<path d="M54.467 18.1138C54.467 17.0341 54.7239 16.1763 55.2376 15.5404C55.7514 14.9002 56.432 14.5802 57.2794 14.5802C58.1488 14.5802 58.8272 14.8789 59.3146 15.4764L59.3738 14.7082H60.4869V21.4682C60.4869 22.3644 60.2125 23.0708 59.6636 23.5871C59.1192 24.1035 58.3859 24.3617 57.4638 24.3617C56.9501 24.3617 56.4473 24.255 55.9555 24.0417C55.4638 23.8283 55.0883 23.5359 54.8293 23.1646L55.4616 22.4541C55.9841 23.0814 56.623 23.3951 57.3782 23.3951C57.971 23.3951 58.432 23.2329 58.7613 22.9086C59.095 22.5842 59.2619 22.1276 59.2619 21.5386V20.9433C58.7745 21.4896 58.1093 21.7627 57.2662 21.7627C56.432 21.7627 55.7558 21.4362 55.2376 20.7833C54.7239 20.1303 54.467 19.2405 54.467 18.1138ZM55.6921 18.2482C55.6921 19.0292 55.8568 19.6438 56.1861 20.0919C56.5154 20.5357 56.9764 20.7577 57.5692 20.7577C58.3376 20.7577 58.9018 20.4184 59.2619 19.7398V16.5774C58.8887 15.9159 58.3288 15.5852 57.5824 15.5852C56.9896 15.5852 56.5264 15.8093 56.1927 16.2574C55.8589 16.7055 55.6921 17.3691 55.6921 18.2482Z" fill="white"/>
<path d="M63.655 21.6347H62.4365V11.8019H63.655V21.6347Z" fill="white"/>
<path d="M68.5684 21.7627C67.6024 21.7627 66.8164 21.4554 66.2105 20.8409C65.6045 20.2221 65.3015 19.3963 65.3015 18.3635V18.1458C65.3015 17.4587 65.4355 16.8463 65.7033 16.3086C65.9755 15.7666 66.3532 15.3441 66.8362 15.0411C67.3235 14.7338 67.8505 14.5802 68.4169 14.5802C69.3434 14.5802 70.0635 14.8768 70.5772 15.47C71.0909 16.0632 71.3478 16.9125 71.3478 18.0178V18.5107H66.52C66.5376 19.1935 66.7418 19.7462 67.1325 20.1687C67.5277 20.5869 68.0283 20.7961 68.6342 20.7961C69.0645 20.7961 69.429 20.7107 69.7276 20.54C70.0261 20.3693 70.2874 20.1431 70.5113 19.8614L71.2556 20.4248C70.6584 21.3167 69.7627 21.7627 68.5684 21.7627ZM68.4169 15.5532C67.9251 15.5532 67.5124 15.7282 67.1786 16.0781C66.8449 16.4238 66.6386 16.9103 66.5595 17.5377H70.1293V17.4481C70.0942 16.8463 69.9273 16.3811 69.6288 16.0525C69.3302 15.7196 68.9262 15.5532 68.4169 15.5532Z" fill="white"/>
<path d="M77.5653 17.9858V21.6347H76.3007V12.314H79.8376C80.887 12.314 81.7081 12.5743 82.3009 13.095C82.898 13.6157 83.1966 14.3049 83.1966 15.1627C83.1966 16.0675 82.9046 16.7652 82.3206 17.256C81.741 17.7425 80.9089 17.9858 79.8244 17.9858H77.5653ZM77.5653 16.9807H79.8376C80.5138 16.9807 81.0319 16.8271 81.3919 16.5198C81.752 16.2083 81.932 15.7602 81.932 15.1755C81.932 14.6207 81.752 14.1769 81.3919 13.844C81.0319 13.5111 80.5379 13.3383 79.91 13.3255H77.5653V16.9807Z" fill="white"/>
<path d="M85.9431 21.6347H84.7246V11.8019H85.9431V21.6347Z" fill="white"/>
<path d="M92.2989 21.6347C92.2286 21.4981 92.1716 21.2548 92.1277 20.9049C91.5612 21.4768 90.885 21.7627 90.0991 21.7627C89.3965 21.7627 88.8191 21.5707 88.3669 21.1866C87.919 20.7982 87.6951 20.3074 87.6951 19.7142C87.6951 18.993 87.9761 18.4339 88.5381 18.037C89.1045 17.6358 89.8993 17.4352 90.9224 17.4352H92.1079V16.8911C92.1079 16.4771 91.9806 16.1485 91.7259 15.9053C91.4712 15.6578 91.0958 15.534 90.5996 15.534C90.1649 15.534 89.8005 15.6407 89.5063 15.8541C89.2121 16.0675 89.065 16.3256 89.065 16.6287H87.84C87.84 16.283 87.9651 15.9501 88.2154 15.63C88.47 15.3057 88.8125 15.0496 89.2428 14.8618C89.6775 14.674 90.154 14.5802 90.6721 14.5802C91.4932 14.5802 92.1364 14.7807 92.6019 15.1819C93.0673 15.5788 93.3088 16.1272 93.3264 16.8271V20.0151C93.3264 20.651 93.4098 21.1567 93.5766 21.5322V21.6347H92.2989ZM90.2769 20.732C90.6589 20.732 91.0212 20.636 91.3636 20.444C91.7061 20.2519 91.9542 20.0023 92.1079 19.695V18.2739H91.1529C89.66 18.2739 88.9135 18.6985 88.9135 19.5478C88.9135 19.9191 89.0409 20.2093 89.2955 20.4184C89.5502 20.6275 89.8773 20.732 90.2769 20.732Z" fill="white"/>
<path d="M97.4626 19.8998L99.1223 14.7082H100.426L97.5614 22.7037C97.1179 23.856 96.4132 24.4321 95.4472 24.4321L95.2166 24.4129L94.7622 24.3297V23.3695L95.0915 23.3951C95.5042 23.3951 95.8248 23.314 96.0531 23.1518C96.2858 22.9897 96.4768 22.6931 96.6261 22.262L96.8962 21.5578L94.3538 14.7082H95.6843L97.4626 19.8998Z" fill="white"/>
<path d="M22.1602 12.0192L17.6116 9.44849L13.8618 12.9955L17.2899 16.2496L22.1602 13.4402C22.2917 13.3674 22.4011 13.2617 22.4773 13.1341C22.5534 13.0064 22.5935 12.8613 22.5935 12.7135C22.5935 12.5657 22.5534 12.4205 22.4773 12.2929C22.4011 12.1652 22.2917 12.0595 22.1602 11.9867V12.0192Z" fill="white"/>
<path d="M16.8346 9.01464L11.8201 6.18355L0.836914 0.673218L13.2401 12.4098L16.8346 9.01464Z" fill="white"/>
<path d="M1.01367 25.1336L11.8415 19.2978L16.5121 16.662L13.2394 13.5706L1.01367 25.1336Z" fill="white"/>
<path d="M0.104216 1.15076L0.0820312 24.8408L12.6295 12.9958L0.104216 1.15076Z" fill="white"/>
</svg>
