<svg width="88" height="24" viewBox="0 0 88 24" fill="none" xmlns="http://www.w3.org/2000/svg">
<rect width="88" height="24" rx="5" fill="#E56366"/>
<path d="M31.9213 7.88566V8.99501H31.631V8.13338H27.8387L27.8328 8.99501H27.5425L27.5484 7.88566H27.7736C28.0461 7.86412 28.2357 7.6559 28.3424 7.26099C28.453 6.86607 28.5202 6.3132 28.5439 5.60236L28.5853 4.36377H31.2814V7.88566H31.9213ZM28.8224 5.6239C28.7987 6.23422 28.7453 6.73324 28.6624 7.12097C28.5834 7.5087 28.4471 7.7636 28.2535 7.88566H30.9792V4.61149H28.8579L28.8224 5.6239Z" fill="white"/>
<path d="M33.9154 8.15492C33.6231 8.15492 33.3584 8.09389 33.1214 7.97183C32.8883 7.84976 32.7046 7.68103 32.5703 7.46562C32.436 7.24663 32.3689 7.0007 32.3689 6.72785C32.3689 6.45501 32.436 6.21088 32.5703 5.99547C32.7046 5.77648 32.8883 5.60595 33.1214 5.48388C33.3584 5.36182 33.6231 5.30079 33.9154 5.30079C34.2077 5.30079 34.4704 5.36182 34.7035 5.48388C34.9405 5.60595 35.1261 5.77648 35.2604 5.99547C35.3948 6.21088 35.4619 6.45501 35.4619 6.72785C35.4619 7.0007 35.3948 7.24663 35.2604 7.46562C35.1261 7.68103 34.9405 7.84976 34.7035 7.97183C34.4704 8.09389 34.2077 8.15492 33.9154 8.15492ZM33.9154 7.91259C34.1524 7.91259 34.3637 7.86233 34.5494 7.76181C34.739 7.66128 34.8872 7.52127 34.9938 7.34176C35.1044 7.16226 35.1597 6.95762 35.1597 6.72785C35.1597 6.49809 35.1044 6.29345 34.9938 6.11395C34.8872 5.93444 34.739 5.79443 34.5494 5.6939C34.3637 5.59338 34.1524 5.54312 33.9154 5.54312C33.6784 5.54312 33.4651 5.59338 33.2755 5.6939C33.0898 5.79443 32.9417 5.93444 32.831 6.11395C32.7244 6.29345 32.6711 6.49809 32.6711 6.72785C32.6711 6.95762 32.7244 7.16226 32.831 7.34176C32.9417 7.52127 33.0898 7.66128 33.2755 7.76181C33.4651 7.86233 33.6784 7.91259 33.9154 7.91259Z" fill="white"/>
<path d="M37.677 8.15492C37.3768 8.15492 37.1082 8.09389 36.8712 7.97183C36.6342 7.84976 36.4485 7.68103 36.3142 7.46562C36.1799 7.24663 36.1127 7.0007 36.1127 6.72785C36.1127 6.45142 36.1799 6.20549 36.3142 5.99009C36.4485 5.77109 36.6342 5.60236 36.8712 5.48388C37.1082 5.36182 37.3768 5.30079 37.677 5.30079C37.9259 5.30079 38.1511 5.34566 38.3525 5.43542C38.5579 5.52158 38.7238 5.64903 38.8502 5.81776L38.631 5.96316C38.5204 5.82315 38.3821 5.71903 38.2162 5.65082C38.0543 5.57902 37.8745 5.54312 37.677 5.54312C37.4361 5.54312 37.2188 5.59338 37.0252 5.6939C36.8356 5.79084 36.6855 5.92906 36.5749 6.10856C36.4683 6.28807 36.4149 6.4945 36.4149 6.72785C36.4149 6.96121 36.4683 7.16764 36.5749 7.34715C36.6855 7.52665 36.8356 7.66667 37.0252 7.76719C37.2188 7.86412 37.4361 7.91259 37.677 7.91259C37.8745 7.91259 38.0543 7.87848 38.2162 7.81027C38.3821 7.73847 38.5204 7.63256 38.631 7.49255L38.8502 7.63795C38.7238 7.80668 38.5579 7.93593 38.3525 8.02568C38.1511 8.11184 37.9259 8.15492 37.677 8.15492Z" fill="white"/>
<path d="M41.7236 5.56466H40.5148V8.13338H40.2185V5.56466H39.0098V5.32233H41.7236V5.56466Z" fill="white"/>
<path d="M44.882 5.32233L43.294 8.51573C43.1755 8.76345 43.0372 8.93936 42.8792 9.04347C42.7252 9.14759 42.5415 9.19964 42.3282 9.19964C42.1859 9.19964 42.0516 9.1781 41.9252 9.13502C41.8028 9.09194 41.6981 9.02911 41.6112 8.94654L41.7593 8.7419C41.9173 8.8891 42.1089 8.9627 42.3341 8.9627C42.4842 8.9627 42.6126 8.925 42.7192 8.84961C42.8259 8.77422 42.9246 8.64497 43.0155 8.46188L43.1814 8.12261L41.7889 5.32233H42.103L43.3414 7.8372L44.5798 5.32233H44.882Z" fill="white"/>
<path d="M48.3003 5.32233V8.13338H48.004V5.56466H45.8946V8.13338H45.5984V5.32233H48.3003Z" fill="white"/>
<path d="M49.5795 5.32233H49.8757V6.604H51.9733V5.32233H52.2696V8.13338H51.9733V6.84094H49.8757V8.13338H49.5795V5.32233Z" fill="white"/>
<path d="M54.7815 8.15492C54.4891 8.15492 54.2245 8.09389 53.9875 7.97183C53.7544 7.84976 53.5707 7.68103 53.4364 7.46562C53.3021 7.24663 53.2349 7.0007 53.2349 6.72785C53.2349 6.45501 53.3021 6.21088 53.4364 5.99547C53.5707 5.77648 53.7544 5.60595 53.9875 5.48388C54.2245 5.36182 54.4891 5.30079 54.7815 5.30079C55.0738 5.30079 55.3365 5.36182 55.5695 5.48388C55.8065 5.60595 55.9922 5.77648 56.1265 5.99547C56.2608 6.21088 56.328 6.45501 56.328 6.72785C56.328 7.0007 56.2608 7.24663 56.1265 7.46562C55.9922 7.68103 55.8065 7.84976 55.5695 7.97183C55.3365 8.09389 55.0738 8.15492 54.7815 8.15492ZM54.7815 7.91259C55.0185 7.91259 55.2298 7.86233 55.4155 7.76181C55.6051 7.66128 55.7532 7.52127 55.8599 7.34176C55.9705 7.16226 56.0258 6.95762 56.0258 6.72785C56.0258 6.49809 55.9705 6.29345 55.8599 6.11395C55.7532 5.93444 55.6051 5.79443 55.4155 5.6939C55.2298 5.59338 55.0185 5.54312 54.7815 5.54312C54.5444 5.54312 54.3311 5.59338 54.1415 5.6939C53.9559 5.79443 53.8077 5.93444 53.6971 6.11395C53.5905 6.29345 53.5371 6.49809 53.5371 6.72785C53.5371 6.95762 53.5905 7.16226 53.6971 7.34176C53.8077 7.52127 53.9559 7.66128 54.1415 7.76181C54.3311 7.86233 54.5444 7.91259 54.7815 7.91259Z" fill="white"/>
<path d="M58.8147 5.32233H59.111V6.604H61.2085V5.32233H61.5048V8.13338H61.2085V6.84094H59.111V8.13338H58.8147V5.32233Z" fill="white"/>
<path d="M63.8093 5.30079C64.1925 5.30079 64.4868 5.39054 64.6922 5.57005C64.8976 5.74596 65.0003 6.00624 65.0003 6.35089V8.13338H64.7159V7.63256C64.6171 7.79771 64.4729 7.92695 64.2833 8.02029C64.0937 8.11005 63.8666 8.15492 63.6019 8.15492C63.2582 8.15492 62.9857 8.08133 62.7842 7.93413C62.5867 7.78694 62.4879 7.59307 62.4879 7.35253C62.4879 7.11918 62.5788 6.9307 62.7605 6.78709C62.9462 6.6399 63.2405 6.5663 63.6434 6.5663H64.704V6.34012C64.704 6.07805 64.625 5.87879 64.467 5.74237C64.313 5.60595 64.0858 5.53773 63.7856 5.53773C63.5802 5.53773 63.3827 5.57005 63.1931 5.63467C63.0074 5.69929 62.8494 5.78545 62.719 5.89316L62.5709 5.69929C62.725 5.57364 62.9106 5.4767 63.1279 5.40849C63.3451 5.33669 63.5723 5.30079 63.8093 5.30079ZM63.6434 7.93413C63.9002 7.93413 64.1174 7.88028 64.2952 7.77258C64.4769 7.66487 64.6132 7.5087 64.704 7.30407V6.77632H63.6493C63.3451 6.77632 63.1239 6.82658 62.9857 6.92711C62.8514 7.02763 62.7842 7.16585 62.7842 7.34176C62.7842 7.52486 62.8593 7.67026 63.0094 7.77796C63.1595 7.88207 63.3708 7.93413 63.6434 7.93413Z" fill="white"/>
<path d="M32.9617 17.4253C32.7234 17.7355 32.3902 17.9682 31.9619 18.1233C31.5369 18.2754 31.041 18.3515 30.4743 18.3515C29.9011 18.3515 29.3924 18.2301 28.948 17.9872C28.5036 17.7414 28.1591 17.3931 27.9144 16.9424C27.6729 16.4918 27.5489 15.9694 27.5425 15.3753V14.8179C27.5425 13.8551 27.7888 13.1088 28.2815 12.5791C28.7773 12.0495 29.4729 11.7846 30.368 11.7846C31.1022 11.7846 31.693 11.9558 32.1406 12.2982C32.5882 12.6377 32.8619 13.1205 32.9617 13.7468H32.0344C31.8605 12.901 31.3066 12.4782 30.3728 12.4782C29.7514 12.4782 29.2797 12.6772 28.9577 13.0752C28.6389 13.4702 28.4779 14.0438 28.4747 14.7959V15.3183C28.4747 16.0353 28.655 16.6059 29.0156 17.0302C29.3763 17.4516 29.8641 17.6623 30.4791 17.6623C30.8269 17.6623 31.1312 17.6272 31.392 17.557C31.6528 17.4868 31.8685 17.3682 32.0392 17.2014V15.766H30.4115V15.0812H32.9617V17.4253Z" fill="white"/>
<path d="M34.1354 15.845C34.1354 15.3797 34.2352 14.9613 34.4349 14.5896C34.6377 14.2179 34.9179 13.9312 35.2753 13.7292C35.6359 13.5273 36.0465 13.4263 36.5069 13.4263C37.2185 13.4263 37.7933 13.6502 38.2312 14.098C38.6724 14.5457 38.8929 15.1412 38.8929 15.8845V15.9416C38.8929 16.404 38.7947 16.8195 38.5983 17.1883C38.4051 17.5541 38.1266 17.8394 37.7627 18.0442C37.4021 18.2491 36.9867 18.3515 36.5166 18.3515C35.8082 18.3515 35.2334 18.1276 34.7923 17.6799C34.3544 17.2322 34.1354 16.6396 34.1354 15.9021V15.845ZM35.0338 15.9416C35.0338 16.4684 35.1674 16.8912 35.4347 17.2102C35.7051 17.5292 36.0658 17.6887 36.5166 17.6887C36.9706 17.6887 37.3312 17.5277 37.5985 17.2058C37.8657 16.881 37.9994 16.4274 37.9994 15.845C37.9994 15.3241 37.8625 14.9027 37.5888 14.5808C37.3183 14.256 36.9577 14.0936 36.5069 14.0936C36.0658 14.0936 35.71 14.2531 35.4395 14.572C35.169 14.891 35.0338 15.3475 35.0338 15.9416Z" fill="white"/>
<path d="M39.7768 15.845C39.7768 15.3797 39.8766 14.9613 40.0763 14.5896C40.2791 14.2179 40.5593 13.9312 40.9167 13.7292C41.2773 13.5273 41.6879 13.4263 42.1483 13.4263C42.8599 13.4263 43.4347 13.6502 43.8726 14.098C44.3138 14.5457 44.5343 15.1412 44.5343 15.8845V15.9416C44.5343 16.404 44.4361 16.8195 44.2397 17.1883C44.0465 17.5541 43.768 17.8394 43.4041 18.0442C43.0435 18.2491 42.6281 18.3515 42.158 18.3515C41.4496 18.3515 40.8748 18.1276 40.4337 17.6799C39.9958 17.2322 39.7768 16.6396 39.7768 15.9021V15.845ZM40.6752 15.9416C40.6752 16.4684 40.8088 16.8912 41.0761 17.2102C41.3465 17.5292 41.7072 17.6887 42.158 17.6887C42.612 17.6887 42.9726 17.5277 43.2399 17.2058C43.5072 16.881 43.6408 16.4274 43.6408 15.845C43.6408 15.3241 43.5039 14.9027 43.2302 14.5808C42.9598 14.256 42.5991 14.0936 42.1483 14.0936C41.7072 14.0936 41.3514 14.2531 41.0809 14.572C40.8104 14.891 40.6752 15.3475 40.6752 15.9416Z" fill="white"/>
<path d="M45.4424 15.8494C45.4424 15.109 45.6307 14.5208 46.0075 14.0848C46.3842 13.6458 46.8833 13.4263 47.5048 13.4263C48.1423 13.4263 48.6398 13.6312 48.9972 14.0409L49.0407 13.5141H49.857V18.1496C49.857 18.7641 49.6557 19.2485 49.2532 19.6026C48.8539 19.9567 48.3162 20.1337 47.64 20.1337C47.2633 20.1337 46.8946 20.0605 46.5339 19.9142C46.1733 19.7679 45.898 19.5674 45.708 19.3128L46.1717 18.8256C46.5549 19.2558 47.0234 19.4709 47.5772 19.4709C48.0119 19.4709 48.35 19.3597 48.5915 19.1373C48.8362 18.9149 48.9586 18.6017 48.9586 18.1979V17.7896C48.6012 18.1642 48.1133 18.3515 47.4951 18.3515C46.8833 18.3515 46.3874 18.1276 46.0075 17.6799C45.6307 17.2322 45.4424 16.622 45.4424 15.8494ZM46.3407 15.9416C46.3407 16.4771 46.4615 16.8985 46.703 17.2058C46.9445 17.5102 47.2826 17.6623 47.7173 17.6623C48.2808 17.6623 48.6945 17.4297 48.9586 16.9644V14.7959C48.6849 14.3423 48.2743 14.1155 47.7269 14.1155C47.2922 14.1155 46.9525 14.2692 46.7078 14.5764C46.4631 14.8837 46.3407 15.3388 46.3407 15.9416Z" fill="white"/>
<path d="M52.1802 18.2637H51.2866V11.5212H52.1802V18.2637Z" fill="white"/>
<path d="M55.7833 18.3515C55.0749 18.3515 54.4986 18.1408 54.0542 17.7194C53.6098 17.2951 53.3877 16.7288 53.3877 16.0206V15.8714C53.3877 15.4002 53.4859 14.9803 53.6823 14.6115C53.8819 14.2399 54.1589 13.9502 54.5131 13.7424C54.8705 13.5317 55.2569 13.4263 55.6722 13.4263C56.3517 13.4263 56.8797 13.6297 57.2565 14.0365C57.6332 14.4433 57.8216 15.0256 57.8216 15.7836V16.1216H54.2812C54.2941 16.5898 54.4438 16.9688 54.7304 17.2585C55.0202 17.5453 55.3873 17.6887 55.8316 17.6887C56.1472 17.6887 56.4145 17.6302 56.6334 17.5131C56.8524 17.396 57.044 17.2409 57.2082 17.0478L57.754 17.4341C57.3161 18.0457 56.6592 18.3515 55.7833 18.3515ZM55.6722 14.0936C55.3116 14.0936 55.0089 14.2136 54.7642 14.4535C54.5195 14.6906 54.3682 15.0242 54.3102 15.4544H56.928V15.3929C56.9023 14.9803 56.7799 14.6613 56.561 14.436C56.342 14.2077 56.0458 14.0936 55.6722 14.0936Z" fill="white"/>
<path d="M62.3811 15.7616V18.2637H61.4537V11.8724H64.0474C64.817 11.8724 65.4191 12.0509 65.8538 12.4079C66.2918 12.765 66.5107 13.2376 66.5107 13.8258C66.5107 14.4462 66.2966 14.9247 65.8683 15.2612C65.4433 15.5948 64.8331 15.7616 64.0378 15.7616H62.3811ZM62.3811 15.0725H64.0474C64.5433 15.0725 64.9233 14.9671 65.1873 14.7564C65.4513 14.5428 65.5834 14.2355 65.5834 13.8346C65.5834 13.4541 65.4513 13.1498 65.1873 12.9215C64.9233 12.6933 64.561 12.5748 64.1006 12.566H62.3811V15.0725Z" fill="white"/>
<path d="M68.5248 18.2637H67.6313V11.5212H68.5248V18.2637Z" fill="white"/>
<path d="M73.1857 18.2637C73.1342 18.1701 73.0924 18.0033 73.0602 17.7633C72.6448 18.1554 72.1489 18.3515 71.5725 18.3515C71.0573 18.3515 70.6339 18.2198 70.3022 17.9564C69.9738 17.6901 69.8096 17.3536 69.8096 16.9468C69.8096 16.4523 70.0157 16.0689 70.4278 15.7967C70.8432 15.5217 71.426 15.3841 72.1763 15.3841H73.0457V15.011C73.0457 14.7271 72.9523 14.5018 72.7655 14.335C72.5788 14.1653 72.3035 14.0804 71.9396 14.0804C71.6208 14.0804 71.3536 14.1536 71.1378 14.2999C70.9221 14.4462 70.8142 14.6233 70.8142 14.831H69.9158C69.9158 14.594 70.0076 14.3657 70.1911 14.1462C70.3779 13.9238 70.6291 13.7482 70.9446 13.6195C71.2634 13.4907 71.6128 13.4263 71.9927 13.4263C72.5949 13.4263 73.0666 13.5639 73.4079 13.839C73.7492 14.1111 73.9263 14.4872 73.9392 14.9671V17.1531C73.9392 17.5892 74.0004 17.936 74.1227 18.1935V18.2637H73.1857ZM71.7029 17.6448C71.9831 17.6448 72.2487 17.5789 72.4999 17.4473C72.751 17.3156 72.933 17.1444 73.0457 16.9337V15.9592H72.3453C71.2505 15.9592 70.7031 16.2503 70.7031 16.8327C70.7031 17.0873 70.7965 17.2863 70.9833 17.4297C71.17 17.5731 71.4099 17.6448 71.7029 17.6448Z" fill="white"/>
<path d="M76.9724 17.0741L78.1896 13.5141H79.1459L77.0449 18.9968C76.7197 19.7869 76.2029 20.182 75.4945 20.182L75.3254 20.1688L74.9921 20.1118V19.4533L75.2336 19.4709C75.5363 19.4709 75.7714 19.4153 75.9388 19.3041C76.1095 19.1929 76.2495 18.9895 76.359 18.6939L76.5571 18.211L74.6927 13.5141H75.6683L76.9724 17.0741Z" fill="white"/>
<path d="M21.751 11.6703L18.4154 9.90747L15.6655 12.3397L18.1795 14.5711L21.751 12.6447C21.8475 12.5947 21.9277 12.5223 21.9835 12.4347C22.0393 12.3472 22.0687 12.2477 22.0687 12.1463C22.0687 12.045 22.0393 11.9455 21.9835 11.8579C21.9277 11.7704 21.8475 11.6979 21.751 11.648V11.6703Z" fill="white"/>
<path d="M17.8454 9.60997L14.1681 7.66865L6.11377 3.89014L15.2095 11.9381L17.8454 9.60997Z" fill="white"/>
<path d="M6.24316 20.6629L14.1836 16.6613L17.6087 14.8538L15.2087 12.734L6.24316 20.6629Z" fill="white"/>
<path d="M5.57633 4.21765L5.56006 20.4623L14.7615 12.34L5.57633 4.21765Z" fill="white"/>
</svg>
