<svg width="32" height="32" viewBox="0 0 32 32" fill="none" xmlns="http://www.w3.org/2000/svg">
<path fill-rule="evenodd" clip-rule="evenodd" d="M19.6965 5.33352C20.4116 5.33352 21.1256 5.43438 21.8045 5.66218C25.9876 7.02217 27.4949 11.6121 26.2358 15.6241C25.5218 17.6743 24.3545 19.5454 22.8256 21.0742C20.6372 23.1935 18.2357 25.0748 15.6506 26.6955L15.3672 26.8666L15.0726 26.6842C12.4784 25.0748 10.0633 23.1935 7.85444 21.0629C6.33579 19.534 5.16734 17.6743 4.44201 15.6241C3.16136 11.6121 4.66868 7.02217 8.8971 5.63838C9.22576 5.52505 9.56463 5.44572 9.90462 5.40152H10.0406C10.3591 5.35505 10.6753 5.33352 10.9926 5.33352H11.1173C11.8313 5.35505 12.5226 5.47972 13.1924 5.70751H13.2593C13.3046 5.72905 13.3386 5.75285 13.3613 5.77438C13.6117 5.85484 13.8486 5.94551 14.0752 6.07018L14.5059 6.26284C14.61 6.31834 14.7268 6.40315 14.8277 6.47644C14.8917 6.52288 14.9493 6.56469 14.9932 6.5915C15.0117 6.60242 15.0305 6.61339 15.0495 6.62445C15.1467 6.68118 15.2479 6.74027 15.3332 6.8057C16.5924 5.84351 18.1212 5.32218 19.6965 5.33352ZM22.7109 13.4935C23.1756 13.481 23.5723 13.1082 23.6063 12.6311V12.4962C23.6403 10.9084 22.6781 9.47022 21.215 8.9149C20.7503 8.7551 20.2403 9.00556 20.0703 9.48156C19.9116 9.95755 20.161 10.4789 20.637 10.6477C21.3634 10.9197 21.8496 11.6349 21.8496 12.4271V12.4622C21.8281 12.7217 21.9063 12.9722 22.0649 13.1649C22.2236 13.3575 22.4616 13.4697 22.7109 13.4935Z" fill="#E56366"/>
</svg>
