<svg width="20" height="20" viewBox="0 0 20 20" fill="none" xmlns="http://www.w3.org/2000/svg">
<path d="M18.7233 5.08216C18.4388 4.41378 18.0287 3.80811 17.5158 3.29904C17.0025 2.78845 16.3973 2.3827 15.7332 2.10384C15.0445 1.81353 14.3058 1.66493 13.5601 1.66667C12.5138 1.66667 11.4931 1.9574 10.606 2.50655C10.3938 2.63791 10.1922 2.7822 10.0012 2.9394C9.81022 2.7822 9.60861 2.63791 9.3964 2.50655C8.50934 1.9574 7.48858 1.66667 6.44236 1.66667C5.68899 1.66667 4.95897 1.81311 4.26927 2.10384C3.60291 2.38379 3.00234 2.7865 2.48666 3.29904C1.97309 3.80754 1.56283 4.41335 1.27915 5.08216C0.984169 5.77775 0.833496 6.51641 0.833496 7.2766C0.833496 7.99372 0.977803 8.74099 1.26429 9.50119C1.5041 10.1365 1.84789 10.7955 2.28717 11.4609C2.98324 12.514 3.94033 13.6123 5.12874 14.7256C7.0981 16.5712 9.04836 17.8461 9.13113 17.8978L9.63408 18.2251C9.85691 18.3694 10.1434 18.3694 10.3662 18.2251L10.8692 17.8978C10.9519 17.8439 12.9001 16.5712 14.8716 14.7256C16.06 13.6123 17.0171 12.514 17.7131 11.4609C18.1524 10.7955 18.4983 10.1365 18.736 9.50119C19.0225 8.74099 19.1668 7.99372 19.1668 7.2766C19.1689 6.51641 19.0183 5.77775 18.7233 5.08216Z" fill="white" stroke="#979797" stroke-width="1.6"/>
</svg>
