<svg width="18" height="18" viewBox="0 0 18 18" fill="none" xmlns="http://www.w3.org/2000/svg">
<g clip-path="url(#clip0)">
<path d="M16.8508 4.57395C16.5948 3.97242 16.2257 3.42731 15.764 2.96915C15.3021 2.50962 14.7574 2.14444 14.1597 1.89346C13.5399 1.63218 12.8751 1.49845 12.2039 1.50001C11.2623 1.50001 10.3436 1.76167 9.54528 2.2559C9.35428 2.37413 9.17284 2.50399 9.00094 2.64547C8.82905 2.50399 8.64761 2.37413 8.45661 2.2559C7.65826 1.76167 6.73957 1.50001 5.79797 1.50001C5.11994 1.50001 4.46292 1.63181 3.84219 1.89346C3.24247 2.14542 2.70196 2.50786 2.23784 2.96915C1.77563 3.42679 1.4064 3.97203 1.15109 4.57395C0.885606 5.19998 0.75 5.86477 0.75 6.54895C0.75 7.19436 0.879876 7.8669 1.13772 8.55108C1.35354 9.12284 1.66295 9.71592 2.05831 10.3148C2.68477 11.2626 3.54615 12.251 4.61572 13.2531C6.38815 14.9141 8.14338 16.0615 8.21787 16.108L8.67053 16.4026C8.87107 16.5325 9.12891 16.5325 9.32945 16.4026L9.78211 16.108C9.8566 16.0596 11.6099 14.9141 13.3843 13.2531C14.4538 12.251 15.3152 11.2626 15.9417 10.3148C16.337 9.71592 16.6483 9.12284 16.8623 8.55108C17.1201 7.8669 17.25 7.19436 17.25 6.54895C17.2519 5.86477 17.1163 5.19998 16.8508 4.57395Z" fill="white" stroke="#979797" stroke-width="1.6"/>
</g>
<defs>
<clipPath id="clip0">
<rect width="18" height="18" fill="white"/>
</clipPath>
</defs>
</svg>
