<svg width="25" height="20" viewBox="0 0 25 20" fill="none" xmlns="http://www.w3.org/2000/svg">
<path d="M21.6136 3.49985H18.1439V3.14338C18.1439 1.55082 16.8513 0.258301 15.2588 0.258301H9.74058C8.14738 0.258301 6.85551 1.55082 6.85551 3.14338V3.49985H3.38508C1.79187 3.49985 0.5 4.79172 0.5 6.38492V16.8571C0.5 18.4497 1.79187 19.7422 3.38508 19.7422H21.6149C23.2081 19.7422 24.5 18.4497 24.5 16.8571V6.38492C24.4987 4.79108 23.2068 3.49985 21.6136 3.49985ZM12.4987 16.7494C9.49311 16.7494 7.04913 14.3054 7.04913 11.2998C7.04913 8.29484 9.49311 5.85022 12.4987 5.85022C15.5043 5.85022 17.9483 8.2942 17.9483 11.2998C17.9483 14.3054 15.5037 16.7494 12.4987 16.7494ZM15.3838 11.2998C15.3838 12.8892 14.0887 14.1849 12.4987 14.1849C10.9087 14.1849 9.61364 12.8892 9.61364 11.2998C9.61364 9.70982 10.9087 8.41473 12.4987 8.41473C14.0887 8.41473 15.3838 9.70982 15.3838 11.2998Z" fill="white"/>
</svg>
