<svg width="34" height="34" viewBox="0 0 34 34" fill="none" xmlns="http://www.w3.org/2000/svg">
<path d="M15.7837 12.4751C14.0279 12.4751 12.6045 13.8984 12.6045 15.6543C12.6045 17.41 14.0278 18.8334 15.7837 18.8334C17.5394 18.8334 18.9628 17.4101 18.9628 15.6543C18.9628 13.8984 17.5395 12.4751 15.7837 12.4751ZM15.7837 17.3195C14.8639 17.3195 14.1184 16.5739 14.1184 15.6542C14.1184 14.7345 14.8639 13.9889 15.7837 13.9889C16.7034 13.9889 17.4489 14.7345 17.4489 15.6542C17.4489 16.5739 16.7034 17.3195 15.7837 17.3195Z" fill="#9F9F9F"/>
<path d="M28.462 5.20822L7.79755 2.86177C6.99555 2.74775 6.18297 2.98188 5.56461 3.50519C4.94632 3.98461 4.54999 4.69526 4.46705 5.47321L4.08861 8.57668H2.91528C1.24999 8.57668 0.0010228 10.0527 0.0010228 11.718V27.1973C-0.0409209 28.7853 1.21239 30.1067 2.80046 30.1487C2.8387 30.1497 2.87703 30.1499 2.91528 30.1494H23.6933C25.3585 30.1494 26.8724 28.8626 26.8724 27.1973V26.5918C27.3887 26.4921 27.8785 26.2858 28.3106 25.9863C28.9238 25.47 29.3165 24.7388 29.4082 23.9426L31.1492 8.57668C31.3267 6.90756 30.1288 5.40606 28.462 5.20822ZM25.3586 27.1973C25.3586 28.03 24.5259 28.6355 23.6933 28.6355H2.91528C2.16311 28.6576 1.53548 28.0658 1.51339 27.3136C1.51223 27.2749 1.51273 27.2361 1.51491 27.1973V24.3967L7.38123 20.0821C8.08594 19.5411 9.07853 19.5892 9.72776 20.1957L13.8531 23.829C14.4796 24.355 15.2682 24.649 16.0861 24.6616C16.7256 24.6694 17.3546 24.4991 17.9028 24.1696L25.3586 19.855V27.1973H25.3586ZM25.3586 18.0762L17.1079 22.8828C16.3994 23.3025 15.5027 23.2265 14.8749 22.6936L10.7117 19.0224C9.51854 17.9971 7.77459 17.9342 6.5107 18.871L1.51491 22.5043V11.718C1.51491 10.8853 2.08263 10.0906 2.91528 10.0906H23.6933C24.5828 10.1274 25.3012 10.8295 25.3586 11.718V18.0762ZM29.6367 8.37232C29.6362 8.37732 29.6358 8.38239 29.6352 8.38739L27.8564 23.7533C27.8595 24.1517 27.6778 24.529 27.3644 24.7751C27.213 24.9265 26.8724 25.0022 26.8724 25.0779V11.718C26.8126 9.99378 25.418 8.61573 23.6932 8.57668H5.60242L5.94304 5.62462C6.01694 5.24234 6.2168 4.89593 6.51077 4.64057C6.8427 4.41108 7.24402 4.30408 7.64622 4.33776L28.2729 6.72211C29.1051 6.80114 29.7158 7.53997 29.6367 8.37232Z" fill="#9F9F9F"/>
<circle cx="27.9632" cy="26.5467" r="5.53647" fill="white" stroke="#9F9F9F"/>
<path d="M30.6594 26.0716H28.4395V23.8517C28.4395 23.7171 28.386 23.588 28.2909 23.4929C28.1957 23.3977 28.0667 23.3442 27.9321 23.3442C27.7975 23.3442 27.6684 23.3977 27.5733 23.4929C27.4781 23.588 27.4247 23.7171 27.4247 23.8517V26.0716H25.2682C25.1336 26.0716 25.0045 26.1251 24.9094 26.2202C24.8142 26.3154 24.7607 26.4444 24.7607 26.579C24.7607 26.7136 24.8142 26.8426 24.9094 26.9378C25.0045 27.033 25.1336 27.0864 25.2682 27.0864H27.4247V29.2429C27.4247 29.3775 27.4781 29.5066 27.5733 29.6017C27.6684 29.6969 27.7975 29.7504 27.9321 29.7504C28.0667 29.7504 28.1957 29.6969 28.2909 29.6017C28.386 29.5066 28.4395 29.3775 28.4395 29.2429V27.0864H30.6594C30.794 27.0864 30.9231 27.033 31.0182 26.9378C31.1134 26.8426 31.1669 26.7136 31.1669 26.579C31.1669 26.4444 31.1134 26.3154 31.0182 26.2202C30.9231 26.1251 30.794 26.0716 30.6594 26.0716Z" fill="#9F9F9F"/>
</svg>
