<svg width="19" height="18" viewBox="0 0 19 18" fill="none" xmlns="http://www.w3.org/2000/svg">
<g clip-path="url(#clip0)">
<path d="M1.62478 1.22471C0.210283 2.69396 0.499783 4.25471 0.499783 8.99621C0.499783 12.9337 -0.187217 16.881 3.40828 17.8102C4.53103 18.099 14.479 18.099 15.6003 17.8087C17.0973 17.4225 18.3153 16.2082 18.4818 14.091C18.505 13.7955 18.505 4.20221 18.481 3.90071C18.304 1.64546 16.9158 0.345709 15.0865 0.0824585C14.6673 0.0217085 14.5833 0.0037085 12.4323 -4.14979e-05C4.80253 0.0037085 3.13003 -0.336042 1.62478 1.22471Z" fill="url(#paint0_linear)"/>
<path d="M9.49836 2.35421C6.77511 2.35421 4.18911 2.11196 3.20136 4.64696C2.79336 5.69396 2.85261 7.05371 2.85261 9.00071C2.85261 10.7092 2.79786 12.315 3.20136 13.3537C4.18686 15.8902 6.79386 15.6472 9.49686 15.6472C12.1046 15.6472 14.7934 15.9187 15.7931 13.3537C16.2019 12.2962 16.1419 10.9567 16.1419 9.00071C16.1419 6.40421 16.2851 4.72796 15.0259 3.46946C13.7509 2.19446 12.0266 2.35421 9.49536 2.35421H9.49836ZM8.90286 3.55196C14.5834 3.54296 15.3064 2.91146 14.9074 11.6842C14.7656 14.787 12.4031 14.4465 9.49911 14.4465C4.20411 14.4465 4.05186 14.295 4.05186 8.99771C4.05186 3.63896 4.47186 3.55496 8.90286 3.55046V3.55196ZM13.0459 4.65521C12.6056 4.65521 12.2486 5.01221 12.2486 5.45246C12.2486 5.89271 12.6056 6.24971 13.0459 6.24971C13.4861 6.24971 13.8431 5.89271 13.8431 5.45246C13.8431 5.01221 13.4861 4.65521 13.0459 4.65521ZM9.49836 5.58746C7.61361 5.58746 6.08586 7.11596 6.08586 9.00071C6.08586 10.8855 7.61361 12.4132 9.49836 12.4132C11.3831 12.4132 12.9101 10.8855 12.9101 9.00071C12.9101 7.11596 11.3831 5.58746 9.49836 5.58746ZM9.49836 6.78521C12.4271 6.78521 12.4309 11.2162 9.49836 11.2162C6.57036 11.2162 6.56586 6.78521 9.49836 6.78521Z" fill="white"/>
</g>
<defs>
<linearGradient id="paint0_linear" x1="1.6593" y1="16.8503" x2="18.3884" y2="2.37144" gradientUnits="userSpaceOnUse">
<stop stop-color="#FFDD55"/>
<stop offset="0.5" stop-color="#FF543E"/>
<stop offset="1" stop-color="#C837AB"/>
</linearGradient>
<clipPath id="clip0">
<rect width="18" height="18" fill="white" transform="translate(0.5)"/>
</clipPath>
</defs>
</svg>
