<svg width="18" height="18" viewBox="0 0 18 18" fill="none" xmlns="http://www.w3.org/2000/svg">
<path d="M9 1.5C6.10517 1.5 3.75 3.83899 3.75 6.71393C3.75 10.3274 9.00516 16.5 9.00516 16.5C9.00516 16.5 14.25 10.1497 14.25 6.71393C14.25 3.83899 11.8949 1.5 9 1.5ZM10.584 8.24057C10.1473 8.67426 9.57367 8.89114 9 8.89114C8.42642 8.89114 7.85265 8.67426 7.41606 8.24057C6.54259 7.3732 6.54259 5.96182 7.41606 5.09436C7.83901 4.67413 8.40162 4.44269 9 4.44269C9.59838 4.44269 10.1609 4.67422 10.584 5.09436C11.4575 5.96182 11.4575 7.3732 10.584 8.24057Z" fill="#979797"/>
</svg>
