<svg width="20" height="20" viewBox="0 0 20 20" fill="none" xmlns="http://www.w3.org/2000/svg">
<path d="M6.7885 10.9558C6.626 11.1183 6.626 11.3825 6.7885 11.545C6.87018 11.6258 6.97682 11.6667 7.0835 11.6667C7.19018 11.6667 7.29682 11.6259 7.37768 11.545L9.87768 9.04501C9.916 9.00669 9.94686 8.96001 9.96768 8.90919C9.97936 8.88001 9.981 8.85001 9.986 8.81919C9.99018 8.79587 10.0002 8.77419 10.0002 8.75001C10.0002 8.71833 9.9885 8.69001 9.98186 8.66083C9.97686 8.63833 9.97686 8.61415 9.96768 8.59251C9.946 8.54001 9.91436 8.49333 9.87518 8.45333L7.37768 5.95583C7.21518 5.79333 6.951 5.79333 6.7885 5.95583C6.626 6.11833 6.626 6.38251 6.7885 6.54501L8.576 8.33333H1.25018C1.02018 8.33333 0.833496 8.52001 0.833496 8.75001C0.833496 8.98001 1.02018 9.16669 1.25018 9.16669H8.57768L6.7885 10.9558Z" fill="#979797"/>
<path d="M17.3675 0C17.3033 0 17.2408 0.0125 17.1783 0.0191797C17.1467 0.0116797 17.1167 0 17.0833 0H7.08332C5.935 0 5 0.935 5 2.08332V6.25C5 6.48 5.18668 6.66668 5.41668 6.66668C5.64668 6.66668 5.83336 6.48 5.83336 6.25V2.08332C5.83336 1.39414 6.39418 0.83332 7.08336 0.83332H15.0534L11.9242 2.17414C11.2617 2.45832 10.8334 3.10746 10.8334 3.82832V16.6666H7.08336C6.48418 16.6666 5.97504 16.25 5.85086 16.0775L5.83336 11.2483C5.83254 11.0191 5.64586 10.8333 5.41668 10.8333C5.41668 10.8333 5.41586 10.8333 5.415 10.8333C5.185 10.8341 4.99918 11.0216 5 11.2516L5.01918 16.1074C5.0025 16.2899 5.08836 16.4807 5.28 16.6907C5.62082 17.0641 6.2975 17.4999 7.08332 17.4999H10.8333V18.2007C10.8333 19.1924 11.6408 19.9999 12.6325 19.9999C12.8783 19.9999 13.1175 19.9507 13.3408 19.8549L18.0758 17.8257C18.7383 17.5416 19.1666 16.8924 19.1666 16.1716V1.79918C19.1667 0.8075 18.3592 0 17.3675 0ZM18.3333 16.1717C18.3333 16.5584 18.1033 16.9075 17.7475 17.0592L13.0125 19.0883C12.8925 19.1408 12.7642 19.1666 12.6325 19.1666C12.1 19.1666 11.6667 18.7333 11.6667 18.2008V3.82832C11.6667 3.44164 11.8967 3.0925 12.2525 2.94082L16.9875 0.91168C17.1075 0.85918 17.2358 0.833359 17.3675 0.833359C17.9 0.833359 18.3333 1.26668 18.3333 1.79918V16.1717Z" fill="#979797"/>
<path d="M12.9167 9.16669C12.6867 9.16669 12.5 9.35337 12.5 9.58336V11.25C12.5 11.48 12.6867 11.6667 12.9167 11.6667C13.1467 11.6667 13.3334 11.48 13.3334 11.25V9.58333C13.3333 9.35333 13.1467 9.16669 12.9167 9.16669Z" fill="#979797"/>
</svg>
