<svg width="64" height="20" viewBox="0 0 64 20" fill="none" xmlns="http://www.w3.org/2000/svg">
<path d="M9.71928 0.454545V9.84375C9.71928 11.8182 8.35565 13.2386 6.13974 13.2386C3.93093 13.2386 2.56019 11.8182 2.56019 9.84375V0.454545H0.36559V10.0213C0.36559 13.0753 2.65252 15.2415 6.13974 15.2415C9.62695 15.2415 11.921 13.0753 11.921 10.0213V0.454545H9.71928ZM14.9412 15H17.0648V11.1293L18.123 10.071L21.8304 15H24.437L19.7211 8.77131L24.1387 4.09091H21.5961L17.2495 8.70739H17.0648V0.454545H14.9412V15ZM32.9846 10.4759C32.9917 12.3295 31.6138 13.2102 30.4206 13.2102C29.1067 13.2102 28.1976 12.2585 28.1976 10.7741V4.09091H26.074V11.0298C26.074 13.7358 27.5584 15.142 29.6536 15.142C31.2942 15.142 32.4093 14.2756 32.9135 13.1108H33.0272V15H35.1152V4.09091H32.9846V10.4759ZM39.3677 15.1349C40.1419 15.1349 40.7882 14.5028 40.7882 13.7145C40.7882 12.9403 40.1419 12.3011 39.3677 12.3011C38.5865 12.3011 37.9473 12.9403 37.9473 13.7145C37.9473 14.5028 38.5865 15.1349 39.3677 15.1349ZM43.6326 15H45.7562V11.1293L46.8145 10.071L50.5218 15H53.1284L48.4125 8.77131L52.8301 4.09091H50.2875L45.9409 8.70739H45.7562V0.454545H43.6326V15ZM58.8901 19.3182C61.6671 19.3182 63.812 18.0469 63.812 15.2415V4.09091H61.731V5.85938H61.5748C61.1983 5.18466 60.4455 3.94886 58.4142 3.94886C55.7793 3.94886 53.8404 6.02983 53.8404 9.50284C53.8404 12.983 55.8219 14.8366 58.4 14.8366C60.4029 14.8366 61.177 13.7074 61.5605 13.0114H61.6955V15.1562C61.6955 16.8679 60.5236 17.6065 58.9114 17.6065C57.1429 17.6065 56.454 16.7188 56.0776 16.0938L54.2523 16.8466C54.8276 18.1818 56.2836 19.3182 58.8901 19.3182ZM58.8688 13.0753C56.9725 13.0753 55.9853 11.6193 55.9853 9.47443C55.9853 7.37926 56.9512 5.75284 58.8688 5.75284C60.7225 5.75284 61.7168 7.26562 61.7168 9.47443C61.7168 11.7259 60.7012 13.0753 58.8688 13.0753Z" fill="#374257"/>
</svg>
