<svg width="24" height="24" viewBox="0 0 24 24" fill="none" xmlns="http://www.w3.org/2000/svg">
<path d="M11.9931 4.00001C10.6909 3.99796 9.41077 4.35845 8.27924 5.04583C7.14771 5.73322 6.20396 6.72371 5.54129 7.91938C4.87862 9.11505 4.51998 10.4745 4.50081 11.8633C4.48164 13.2522 4.80262 14.6223 5.43201 15.8382L4.52878 19.0497C4.49831 19.1582 4.49203 19.2728 4.51046 19.3843C4.52888 19.4959 4.57149 19.6012 4.63488 19.6921C4.69828 19.7829 4.78071 19.8567 4.87559 19.9075C4.97047 19.9584 5.07517 19.9848 5.18134 19.9848C5.24777 19.9847 5.31383 19.9744 5.37752 19.9543L8.3883 18.9909C9.38978 19.5801 10.5044 19.9169 11.6468 19.9756C12.7892 20.0342 13.9291 19.8132 14.979 19.3293C16.0289 18.8454 16.961 18.1116 17.704 17.184C18.4469 16.2565 18.9809 15.1599 19.2651 13.9781C19.5492 12.7964 19.576 11.561 19.3433 10.3665C19.1107 9.17208 18.6247 8.05028 17.9228 7.08711C17.2208 6.12393 16.3215 5.34495 15.2936 4.80985C14.2658 4.27474 13.1368 3.99772 11.9931 4.00001ZM11.9931 18.5317C10.8762 18.5301 9.78114 18.2019 8.82697 17.5827C8.72021 17.5143 8.598 17.4781 8.47344 17.4781C8.40721 17.4778 8.34132 17.4881 8.27795 17.5086L6.19765 18.1749L6.8216 15.9552C6.84869 15.8586 6.85662 15.757 6.84489 15.6569C6.83317 15.5569 6.80204 15.4605 6.75348 15.3739C6.0541 14.1377 5.75831 12.6892 5.91235 11.2548C6.06639 9.82027 6.66157 8.48063 7.6049 7.44513C8.54822 6.40963 9.78656 5.73661 11.1264 5.53124C12.4663 5.32586 13.8322 5.59969 15.0107 6.30995C16.1892 7.02021 17.1139 8.12688 17.6404 9.45704C18.1669 10.7872 18.2655 12.2659 17.9208 13.6622C17.576 15.0584 16.8074 16.2935 15.7349 17.1745C14.6625 18.0555 13.3467 18.5328 11.9931 18.5317Z" fill="#D0D0D0"/>
</svg>
