<svg width="24" height="24" viewBox="0 0 24 24" fill="none" xmlns="http://www.w3.org/2000/svg">
<g clip-path="url(#clip0)">
<path d="M22.7999 10.8002L13.2001 10.8002V1.20014C13.2001 0.537885 12.6624 0.000213623 11.9999 0.000213623C11.3377 0.000213623 10.8 0.537885 10.8 1.20014V10.8002H1.19993C0.537671 10.8002 0 11.3379 0 12.0001C0 12.6626 0.537671 13.2003 1.19993 13.2003H10.8L10.8 22.8001C10.8 23.4626 11.3377 24.0003 11.9999 24.0003C12.6624 24.0003 13.2001 23.4626 13.2001 22.8001L13.2001 13.2003L22.7999 13.2003C23.4624 13.2003 24.0001 12.6626 24.0001 12.0001C24.0001 11.3379 23.4624 10.8002 22.7999 10.8002Z" fill="white"/>
</g>
<defs>
<clipPath id="clip0">
<rect width="24" height="24" fill="white"/>
</clipPath>
</defs>
</svg>
