<svg width="24" height="24" viewBox="0 0 24 24" fill="none" xmlns="http://www.w3.org/2000/svg">
<g clip-path="url(#clip0)">
<path d="M18.788 3.51495L11.9999 10.3031L5.21164 3.5148C4.74335 3.04651 3.98297 3.04651 3.51453 3.51495C3.04624 3.98324 3.04624 4.74362 3.51453 5.21191L10.3028 12.0002L3.51453 18.7885C3.04624 19.2567 3.04624 20.0171 3.51453 20.4854C3.98297 20.9539 4.74335 20.9539 5.21164 20.4856L11.9999 13.6973L18.788 20.4854C19.2565 20.9539 20.0169 20.9539 20.4851 20.4856C20.9536 20.0171 20.9536 19.2567 20.4851 18.7883L13.697 12.0002L20.4851 5.21206C20.9536 4.74362 20.9536 3.98324 20.4851 3.5148C20.0169 3.04651 19.2565 3.04651 18.788 3.51495Z" fill="#354455"/>
</g>
<defs>
<clipPath id="clip0">
<rect width="24" height="24" fill="white"/>
</clipPath>
</defs>
</svg>
