<svg width="20" height="20" viewBox="0 0 20 20" fill="none" xmlns="http://www.w3.org/2000/svg">
<path d="M12.8132 14.1103C11.3422 15.2536 9.491 15.793 7.63649 15.6186C5.78198 15.4442 4.06363 14.5691 2.83132 13.1717C1.59901 11.7742 0.945398 9.95929 1.00358 8.09656C1.06175 6.23384 1.82734 4.46334 3.14446 3.14555C4.46157 1.82776 6.23118 1.06178 8.09296 1.00358C9.95473 0.94537 11.7687 1.59931 13.1655 2.83225C14.5622 4.06519 15.4368 5.78442 15.6111 7.63987C15.7854 9.49532 15.2464 11.3475 14.1037 12.8192L19 17.6997L17.7004 19L12.8224 14.1103H12.8132ZM8.32873 13.8173C9.04984 13.8173 9.7639 13.6752 10.4301 13.3991C11.0964 13.123 11.7017 12.7183 12.2116 12.2082C12.7215 11.698 13.126 11.0923 13.402 10.4258C13.6779 9.7592 13.8199 9.04478 13.8199 8.3233C13.8199 7.60181 13.6779 6.88739 13.402 6.22083C13.126 5.55426 12.7215 4.94861 12.2116 4.43844C11.7017 3.92828 11.0964 3.52359 10.4301 3.24749C9.7639 2.97139 9.04984 2.82928 8.32873 2.82928C6.87236 2.82928 5.47565 3.40811 4.44585 4.43844C3.41604 5.46877 2.8375 6.86619 2.8375 8.3233C2.8375 9.7804 3.41604 11.1778 4.44585 12.2082C5.47565 13.2385 6.87236 13.8173 8.32873 13.8173Z" fill="#979797"/>
</svg>
