<svg width="40" height="40" viewBox="0 0 40 40" fill="none" xmlns="http://www.w3.org/2000/svg">
<g clip-path="url(#clip0)">
<path d="M32.5707 17.8594L13.2069 9.82457C12.3912 9.48604 11.4696 9.63496 10.8018 10.213C10.134 10.7912 9.85475 11.6819 10.073 12.5378L11.9758 19.9999L10.073 27.462C9.85475 28.3179 10.134 29.2087 10.8018 29.7868C11.4708 30.3661 12.3926 30.5131 13.2069 30.1753L32.5707 22.1405C33.4523 21.7747 34 20.9544 34 19.9999C34 19.0454 33.4523 18.2252 32.5707 17.8594ZM32.0317 20.8416L12.668 28.8764C12.3423 29.0114 11.9888 28.9544 11.7223 28.7236C11.4557 28.4928 11.3486 28.1512 11.4357 27.8095L13.2478 20.703H20.2353C20.6236 20.703 20.9384 20.3882 20.9384 19.9999C20.9384 19.6115 20.6236 19.2967 20.2353 19.2967H13.2479L11.4357 12.1904C11.3486 11.8487 11.4557 11.507 11.7223 11.2762C11.9888 11.0455 12.3422 10.9884 12.6679 11.1235L32.0317 19.1583C32.5532 19.3747 32.5937 19.8572 32.5937 19.9999C32.5937 20.1427 32.5532 20.6252 32.0317 20.8416Z" fill="#D9D9D9"/>
</g>
<rect x="0.5" y="0.5" width="39" height="39" rx="19.5" stroke="#D9D9D9"/>
<defs>
<clipPath id="clip0">
<rect width="24" height="24" fill="white" transform="translate(10 8)"/>
</clipPath>
</defs>
</svg>
