<svg width="19" height="18" viewBox="0 0 19 18" fill="none" xmlns="http://www.w3.org/2000/svg">
<path d="M12.5 0H6.5C3.18629 0 0.5 2.68629 0.5 6V12C0.5 15.3137 3.18629 18 6.5 18H12.5C15.8137 18 18.5 15.3137 18.5 12V6C18.5 2.68629 15.8137 0 12.5 0Z" fill="#1BD741"/>
<path d="M3.20508 15.3015L4.08677 12.1701C3.51979 11.2068 3.22127 10.1109 3.22127 8.98509C3.22127 5.51864 6.04144 2.69848 9.50789 2.69848C12.9743 2.69848 15.7945 5.51864 15.7945 8.98509C15.7945 12.4515 12.9743 15.2717 9.50789 15.2717C8.42776 15.2717 7.37011 14.9952 6.43447 14.4702L3.20508 15.3015ZM6.59957 13.3265L6.792 13.444C7.60777 13.942 8.54693 14.2053 9.50789 14.2053C12.3863 14.2053 14.728 11.8635 14.728 8.98509C14.728 6.10667 12.3863 3.7649 9.50789 3.7649C6.62947 3.7649 4.28769 6.10667 4.28769 8.98509C4.28769 9.98804 4.57274 10.962 5.11195 11.8017L5.24154 12.0035L4.73381 13.8068L6.59957 13.3265Z" fill="white"/>
<path d="M7.74253 6.05912L7.33461 6.03689C7.20648 6.0299 7.0808 6.07271 6.98395 6.15684C6.78619 6.32857 6.46998 6.66058 6.37285 7.09324C6.22802 7.73834 6.45185 8.52828 7.03115 9.31822C7.61045 10.1082 8.69002 11.3721 10.599 11.9119C11.2142 12.0858 11.6981 11.9685 12.0715 11.7297C12.3672 11.5406 12.571 11.2369 12.6445 10.8937L12.7096 10.5895C12.7303 10.4928 12.6812 10.3947 12.5914 10.3533L11.2128 9.71785C11.1233 9.67662 11.0171 9.70268 10.957 9.78069L10.4157 10.4823C10.3748 10.5353 10.3049 10.5563 10.2417 10.5341C9.87102 10.4039 8.62948 9.8839 7.94823 8.57165C7.91869 8.51473 7.92603 8.44565 7.96794 8.39711L8.48519 7.79873C8.53804 7.73763 8.55139 7.65172 8.51963 7.57747L7.92536 6.18713C7.89373 6.11312 7.82283 6.06351 7.74253 6.05912Z" fill="white"/>
</svg>
